<svg title="nem logo with text" class="w-auto h-9 sm:h-11 mx-auto" viewBox="0 0 243 39" xmlns="http://www.w3.org/2000/svg">
                <title>
                  new/era/mabs
                </title>
                <g id="color-copy" stroke="none" stroke-width="1" fill="none" fill-rule="evenodd">
                  <g id="Group-Copy" transform="translate(2.000000, 0.600000)">
                    <g id="neweramabs" transform="translate(0.000000, 6.700000)" stroke="#117000">
                      <path d="M13.9222568,27.8103125 C6.24218141,27.8103125 0.0162501832,21.5920332 0.0162501832,13.9213969 C0.0162501832,6.25076068 6.24218141,0.0324813772 13.9222568,0.0324813772 C21.6023322,0.0324813772 27.8282634,6.25076068 27.8282634,13.9213969 C27.8282634,21.5920332 21.6023322,27.8103125 13.9222568,27.8103125 Z" id="use3872" stroke-width="2.24608565" fill="#8CE614"></path>
                      <path d="M1.44782849,6.9220641 C4.28254713,7.38997087 6.83868092,8.4642078 9.37149673,9.26776655 C11.0404423,9.99001086 12.8170244,11.1987009 13.1178986,13.1599697 C13.5195051,15.7263703 12.4747405,18.2136269 11.5863963,20.5595793 C10.8385768,22.4462417 10.0020273,24.2949622 9.23801327,26.17475" id="use3874" stroke-width="2.24858397"></path>
                      <path d="M14.596206,22.6574087 C14.4768672,20.9560104 13.6604583,19.1449606 14.2236007,17.1503834 C14.8235404,14.6750688 17.670734,12.3615808 20.1496115,11.8108033 C21.7953275,11.3299975 23.1462104,11.2901243 25.2677464,10.8996076 C25.4941628,10.8868378 26.9037954,10.6462431 27.1301496,10.660753" id="use3876" stroke-width="2.24858397" stroke-linecap="round"></path>
                      <path d="M9.85955692,6.06275189 C11.3701502,7.96091623 13.1691238,9.76647573 15.4597046,10.6381786 C17.1143275,11.0315109 18.8388486,10.4610025 20.222668,9.53651672 C20.8260631,9.17390555 21.4159041,8.78738799 22.0348904,8.45203937" id="use3878" stroke-width="2.24858397" stroke-linecap="round"></path>
                    </g>
                    <polygon id="/" fill="#8CE614" fill-rule="nonzero" points="95.994 35.835 106.503 5.827 104.519 5.827 93.948 35.835"></polygon>
                    <path d="M41.193793,30 L41.193793,15.926 C41.4004596,15.8433333 41.8499596,15.7503333 42.542293,15.647 C43.2346263,15.5436667 44.0561263,15.492 45.006793,15.492 C45.8954596,15.492 46.634293,15.6005 47.223293,15.8175 C47.812293,16.0345 48.2876263,16.391 48.649293,16.887 C49.0109596,17.383 49.269293,18.0236667 49.424293,18.809 C49.579293,19.5943333 49.656793,20.5553333 49.656793,21.692 L49.656793,21.692 L49.656793,30 L51.671793,30 L51.671793,21.041 C51.671793,19.9456667 51.5684596,18.9433333 51.361793,18.034 C51.1551263,17.1246667 50.8089596,16.3445 50.323293,15.6935 C49.8376263,15.0425 49.1866263,14.5413333 48.370293,14.19 C47.5539596,13.8386667 46.5361263,13.663 45.316793,13.663 C43.8494596,13.663 42.6094596,13.7663333 41.596793,13.973 C40.5841263,14.1796667 39.7781263,14.3656667 39.178793,14.531 L39.178793,14.531 L39.178793,30 L41.193793,30 Z M63.730793,30.341 C64.8054596,30.341 65.7406263,30.2273333 66.536293,30 C67.3319596,29.7726667 67.8744596,29.5763333 68.163793,29.411 L68.163793,29.411 L67.791793,27.675 C67.5024596,27.8196667 67.0374596,27.9953333 66.396793,28.202 C65.7561263,28.4086667 64.8881263,28.512 63.792793,28.512 C61.808793,28.512 60.3621263,27.985 59.452793,26.931 C58.5434596,25.877 58.057793,24.3683333 57.995793,22.405 L57.995793,22.405 L69.248793,22.405 C69.2694596,22.2603333 69.2849596,22.1053333 69.295293,21.94 C69.3056263,21.7746667 69.310793,21.6093333 69.310793,21.444 C69.310793,18.778 68.7269596,16.8043333 67.559293,15.523 C66.3916263,14.2416667 64.8261263,13.601 62.862793,13.601 C61.9741263,13.601 61.111293,13.7715 60.274293,14.1125 C59.437293,14.4535 58.693293,14.9753333 58.042293,15.678 C57.391293,16.3806667 56.864293,17.2538333 56.461293,18.2975 C56.058293,19.3411667 55.856793,20.5656667 55.856793,21.971 C55.856793,23.1903333 56.0014596,24.3115 56.290793,25.3345 C56.5801263,26.3575 57.0451263,27.241 57.685793,27.985 C58.3264596,28.729 59.142793,29.3076667 60.134793,29.721 C61.126793,30.1343333 62.3254596,30.341 63.730793,30.341 Z M67.233793,20.7 L58.057793,20.7 C58.0991263,19.9973333 58.2386263,19.3256667 58.476293,18.685 C58.7139596,18.0443333 59.0446263,17.4811667 59.468293,16.9955 C59.8919596,16.5098333 60.3879596,16.1223333 60.956293,15.833 C61.5246263,15.5436667 62.1704596,15.399 62.893793,15.399 C64.257793,15.399 65.311793,15.864 66.055793,16.794 C66.799793,17.724 67.1924596,19.026 67.233793,20.7 L67.233793,20.7 Z M79.106793,30 C79.416793,29.2766667 79.742293,28.4655 80.083293,27.5665 C80.424293,26.6675 80.7756263,25.7065 81.137293,24.6835 C81.4989596,23.6605 81.850293,22.5858333 82.191293,21.4595 C82.532293,20.3331667 82.857793,19.181 83.167793,18.003 C83.477793,19.181 83.803293,20.3331667 84.144293,21.4595 C84.485293,22.5858333 84.8366263,23.6605 85.198293,24.6835 C85.5599596,25.7065 85.911293,26.6675 86.252293,27.5665 C86.593293,28.4655 86.918793,29.2766667 87.228793,30 L87.228793,30 L89.119793,30 C90.173793,27.6646667 91.1399596,25.195 92.018293,22.591 C92.8966263,19.987 93.707793,17.1143333 94.451793,13.973 L94.451793,13.973 L92.467793,13.973 C92.2404596,15.0683333 91.956293,16.2515 91.615293,17.5225 C91.274293,18.7935 90.9074596,20.0541667 90.514793,21.3045 C90.1221263,22.5548333 89.7294596,23.7431667 89.336793,24.8695 C88.9441263,25.9958333 88.5721263,26.9516667 88.220793,27.737 C87.8074596,26.7036667 87.399293,25.598 86.996293,24.42 C86.593293,23.242 86.2109596,22.0485 85.849293,20.8395 C85.4876263,19.6305 85.1569596,18.4421667 84.857293,17.2745 C84.5576263,16.1068333 84.314793,15.0063333 84.128793,13.973 L84.128793,13.973 L82.392793,13.973 C82.1654596,15.0063333 81.896793,16.1068333 81.586793,17.2745 C81.276793,18.4421667 80.9461263,19.6253333 80.594793,20.824 C80.2434596,22.0226667 79.866293,23.211 79.463293,24.389 C79.060293,25.567 78.6624596,26.6726667 78.269793,27.706 C77.9184596,26.9206667 77.541293,25.97 77.138293,24.854 C76.735293,23.738 76.3374596,22.5548333 75.944793,21.3045 C75.5521263,20.0541667 75.185293,18.7935 74.844293,17.5225 C74.503293,16.2515 74.2191263,15.0683333 73.991793,13.973 L73.991793,13.973 L71.852793,13.973 C72.596793,17.1143333 73.4079596,19.987 74.286293,22.591 C75.1646263,25.195 76.130793,27.6646667 77.184793,30 L77.184793,30 L79.106793,30 Z" id="new" fill="#117000" fill-rule="nonzero"></path>
                    <path d="M117.791793,30.341 C118.86646,30.341 119.801626,30.2273333 120.597293,30 C121.39296,29.7726667 121.93546,29.5763333 122.224793,29.411 L122.224793,29.411 L121.852793,27.675 C121.56346,27.8196667 121.09846,27.9953333 120.457793,28.202 C119.817126,28.4086667 118.949126,28.512 117.853793,28.512 C115.869793,28.512 114.423126,27.985 113.513793,26.931 C112.60446,25.877 112.118793,24.3683333 112.056793,22.405 L112.056793,22.405 L123.309793,22.405 C123.33046,22.2603333 123.34596,22.1053333 123.356293,21.94 C123.366626,21.7746667 123.371793,21.6093333 123.371793,21.444 C123.371793,18.778 122.78796,16.8043333 121.620293,15.523 C120.452626,14.2416667 118.887126,13.601 116.923793,13.601 C116.035126,13.601 115.172293,13.7715 114.335293,14.1125 C113.498293,14.4535 112.754293,14.9753333 112.103293,15.678 C111.452293,16.3806667 110.925293,17.2538333 110.522293,18.2975 C110.119293,19.3411667 109.917793,20.5656667 109.917793,21.971 C109.917793,23.1903333 110.06246,24.3115 110.351793,25.3345 C110.641126,26.3575 111.106126,27.241 111.746793,27.985 C112.38746,28.729 113.203793,29.3076667 114.195793,29.721 C115.187793,30.1343333 116.38646,30.341 117.791793,30.341 Z M121.294793,20.7 L112.118793,20.7 C112.160126,19.9973333 112.299626,19.3256667 112.537293,18.685 C112.77496,18.0443333 113.105626,17.4811667 113.529293,16.9955 C113.95296,16.5098333 114.44896,16.1223333 115.017293,15.833 C115.585626,15.5436667 116.23146,15.399 116.954793,15.399 C118.318793,15.399 119.372793,15.864 120.116793,16.794 C120.860793,17.724 121.25346,19.026 121.294793,20.7 L121.294793,20.7 Z M129.881793,30 L129.881793,15.957 C130.047126,15.8743333 130.393293,15.771 130.920293,15.647 C131.447293,15.523 132.144793,15.461 133.012793,15.461 C133.83946,15.461 134.50596,15.5075 135.012293,15.6005 C135.518626,15.6935 135.85446,15.7813333 136.019793,15.864 L136.019793,15.864 L136.422793,14.128 C136.19546,14.0246667 135.787293,13.9213333 135.198293,13.818 C134.609293,13.7146667 133.984126,13.663 133.322793,13.663 C132.020793,13.663 130.915126,13.7818333 130.005793,14.0195 C129.09646,14.2571667 128.38346,14.4896667 127.866793,14.717 L127.866793,14.717 L127.866793,30 L129.881793,30 Z M144.172793,30.341 C144.834126,30.341 145.47996,30.3151667 146.110293,30.2635 C146.740626,30.2118333 147.314126,30.1446667 147.830793,30.062 C148.34746,29.9793333 148.802126,29.9018333 149.194793,29.8295 C149.58746,29.7571667 149.887126,29.69 150.093793,29.628 L150.093793,29.628 L150.093793,19.522 C150.093793,18.6746667 149.99046,17.8893333 149.783793,17.166 C149.577126,16.4426667 149.24646,15.8175 148.791793,15.2905 C148.337126,14.7635 147.74296,14.3501667 147.009293,14.0505 C146.275626,13.7508333 145.381793,13.601 144.327793,13.601 C143.29446,13.601 142.41096,13.6733333 141.677293,13.818 C140.943626,13.9626667 140.401126,14.1176667 140.049793,14.283 L140.049793,14.283 L140.328793,16.05 C140.59746,15.9466667 141.021126,15.8123333 141.599793,15.647 C142.17846,15.4816667 143.056793,15.399 144.234793,15.399 C145.06146,15.399 145.72796,15.5281667 146.234293,15.7865 C146.740626,16.0448333 147.133293,16.3858333 147.412293,16.8095 C147.691293,17.2331667 147.872126,17.7085 147.954793,18.2355 C148.03746,18.7625 148.078793,19.305 148.078793,19.863 L148.078793,19.863 L148.078793,20.855 C147.996126,20.8136667 147.846293,20.7671667 147.629293,20.7155 C147.412293,20.6638333 147.15396,20.6121667 146.854293,20.5605 C146.554626,20.5088333 146.244626,20.4675 145.924293,20.4365 C145.60396,20.4055 145.299126,20.39 145.009793,20.39 C144.03846,20.39 143.13946,20.483 142.312793,20.669 C141.486126,20.855 140.773126,21.1495 140.173793,21.5525 C139.57446,21.9555 139.10946,22.467 138.778793,23.087 C138.448126,23.707 138.282793,24.451 138.282793,25.319 C138.282793,26.2283333 138.432626,26.9981667 138.732293,27.6285 C139.03196,28.2588333 139.445293,28.7755 139.972293,29.1785 C140.499293,29.5815 141.119293,29.876 141.832293,30.062 C142.545293,30.248 143.32546,30.341 144.172793,30.341 Z M144.513793,28.543 C143.873126,28.543 143.299626,28.4861667 142.793293,28.3725 C142.28696,28.2588333 141.85296,28.078 141.491293,27.83 C141.129626,27.582 140.850626,27.2513333 140.654293,26.838 C140.45796,26.4246667 140.359793,25.9183333 140.359793,25.319 C140.359793,24.637 140.50446,24.0893333 140.793793,23.676 C141.083126,23.2626667 141.455126,22.9371667 141.909793,22.6995 C142.36446,22.4618333 142.86046,22.3068333 143.397793,22.2345 C143.935126,22.1621667 144.451793,22.126 144.947793,22.126 C145.815793,22.126 146.497793,22.1828333 146.993793,22.2965 C147.489793,22.4101667 147.85146,22.5186667 148.078793,22.622 L148.078793,22.622 L148.078793,28.264 C147.66546,28.3466667 147.164293,28.4138333 146.575293,28.4655 C145.986293,28.5171667 145.299126,28.543 144.513793,28.543 Z" id="era" fill="#117000" fill-rule="nonzero"></path>
                    <path d="M171.093793,30 L171.093793,15.926 C171.279793,15.8433333 171.708626,15.7503333 172.380293,15.647 C173.05196,15.5436667 173.87346,15.492 174.844793,15.492 C175.712793,15.492 176.410293,15.6211667 176.937293,15.8795 C177.464293,16.1378333 177.87246,16.5201667 178.161793,17.0265 C178.451126,17.5328333 178.642293,18.1735 178.735293,18.9485 C178.828293,19.7235 178.874793,20.638 178.874793,21.692 L178.874793,21.692 L178.874793,30 L180.889793,30 L180.889793,20.886 C180.889793,20.142 180.843293,19.4341667 180.750293,18.7625 C180.657293,18.0908333 180.517793,17.4863333 180.331793,16.949 C180.435126,16.8663333 180.605626,16.7423333 180.843293,16.577 C181.08096,16.4116667 181.385793,16.2463333 181.757793,16.081 C182.129793,15.9156667 182.56896,15.7761667 183.075293,15.6625 C183.581626,15.5488333 184.144793,15.492 184.764793,15.492 C185.59146,15.492 186.263126,15.6211667 186.779793,15.8795 C187.29646,16.1378333 187.694293,16.5201667 187.973293,17.0265 C188.252293,17.5328333 188.438293,18.1735 188.531293,18.9485 C188.624293,19.7235 188.670793,20.638 188.670793,21.692 L188.670793,21.692 L188.670793,30 L190.685793,30 L190.685793,21.041 C190.685793,19.9663333 190.61346,18.9743333 190.468793,18.065 C190.324126,17.1556667 190.045126,16.3755 189.631793,15.7245 C189.21846,15.0735 188.634626,14.5671667 187.880293,14.2055 C187.12596,13.8438333 186.139126,13.663 184.919793,13.663 C184.175793,13.663 183.49896,13.7353333 182.889293,13.88 C182.279626,14.0246667 181.74746,14.2003333 181.292793,14.407 C180.838126,14.6136667 180.46096,14.8151667 180.161293,15.0115 C179.861626,15.2078333 179.660126,15.3473333 179.556793,15.43 C178.64746,14.252 177.180126,13.663 175.154793,13.663 C173.62546,13.663 172.380293,13.7663333 171.419293,13.973 C170.458293,14.1796667 169.678126,14.3656667 169.078793,14.531 L169.078793,14.531 L169.078793,30 L171.093793,30 Z M200.543793,30.341 C201.205126,30.341 201.85096,30.3151667 202.481293,30.2635 C203.111626,30.2118333 203.685126,30.1446667 204.201793,30.062 C204.71846,29.9793333 205.173126,29.9018333 205.565793,29.8295 C205.95846,29.7571667 206.258126,29.69 206.464793,29.628 L206.464793,29.628 L206.464793,19.522 C206.464793,18.6746667 206.36146,17.8893333 206.154793,17.166 C205.948126,16.4426667 205.61746,15.8175 205.162793,15.2905 C204.708126,14.7635 204.11396,14.3501667 203.380293,14.0505 C202.646626,13.7508333 201.752793,13.601 200.698793,13.601 C199.66546,13.601 198.78196,13.6733333 198.048293,13.818 C197.314626,13.9626667 196.772126,14.1176667 196.420793,14.283 L196.420793,14.283 L196.699793,16.05 C196.96846,15.9466667 197.392126,15.8123333 197.970793,15.647 C198.54946,15.4816667 199.427793,15.399 200.605793,15.399 C201.43246,15.399 202.09896,15.5281667 202.605293,15.7865 C203.111626,16.0448333 203.504293,16.3858333 203.783293,16.8095 C204.062293,17.2331667 204.243126,17.7085 204.325793,18.2355 C204.40846,18.7625 204.449793,19.305 204.449793,19.863 L204.449793,19.863 L204.449793,20.855 C204.367126,20.8136667 204.217293,20.7671667 204.000293,20.7155 C203.783293,20.6638333 203.52496,20.6121667 203.225293,20.5605 C202.925626,20.5088333 202.615626,20.4675 202.295293,20.4365 C201.97496,20.4055 201.670126,20.39 201.380793,20.39 C200.40946,20.39 199.51046,20.483 198.683793,20.669 C197.857126,20.855 197.144126,21.1495 196.544793,21.5525 C195.94546,21.9555 195.48046,22.467 195.149793,23.087 C194.819126,23.707 194.653793,24.451 194.653793,25.319 C194.653793,26.2283333 194.803626,26.9981667 195.103293,27.6285 C195.40296,28.2588333 195.816293,28.7755 196.343293,29.1785 C196.870293,29.5815 197.490293,29.876 198.203293,30.062 C198.916293,30.248 199.69646,30.341 200.543793,30.341 Z M200.884793,28.543 C200.244126,28.543 199.670626,28.4861667 199.164293,28.3725 C198.65796,28.2588333 198.22396,28.078 197.862293,27.83 C197.500626,27.582 197.221626,27.2513333 197.025293,26.838 C196.82896,26.4246667 196.730793,25.9183333 196.730793,25.319 C196.730793,24.637 196.87546,24.0893333 197.164793,23.676 C197.454126,23.2626667 197.826126,22.9371667 198.280793,22.6995 C198.73546,22.4618333 199.23146,22.3068333 199.768793,22.2345 C200.306126,22.1621667 200.822793,22.126 201.318793,22.126 C202.186793,22.126 202.868793,22.1828333 203.364793,22.2965 C203.860793,22.4101667 204.22246,22.5186667 204.449793,22.622 L204.449793,22.622 L204.449793,28.264 C204.03646,28.3466667 203.535293,28.4138333 202.946293,28.4655 C202.357293,28.5171667 201.670126,28.543 200.884793,28.543 Z M217.438793,30.372 C218.616793,30.372 219.686293,30.1808333 220.647293,29.7985 C221.608293,29.4161667 222.43496,28.8633333 223.127293,28.14 C223.819626,27.4166667 224.35696,26.5383333 224.739293,25.505 C225.121626,24.4716667 225.312793,23.304 225.312793,22.002 C225.312793,20.7826667 225.152626,19.6615 224.832293,18.6385 C224.51196,17.6155 224.041793,16.732 223.421793,15.988 C222.801793,15.244 222.042293,14.6653333 221.143293,14.252 C220.244293,13.8386667 219.216126,13.632 218.058793,13.632 C217.004793,13.632 216.090293,13.7818333 215.315293,14.0815 C214.540293,14.3811667 213.977126,14.6653333 213.625793,14.934 L213.625793,14.934 L213.625793,5.944 L211.610793,6.316 L211.610793,29.504 C212.210126,29.7106667 212.974793,29.907 213.904793,30.093 C214.834793,30.279 216.012793,30.372 217.438793,30.372 Z M217.407793,28.543 C216.415793,28.543 215.61496,28.4965 215.005293,28.4035 C214.395626,28.3105 213.935793,28.2123333 213.625793,28.109 L213.625793,28.109 L213.625793,16.887 C213.811793,16.7423333 214.044293,16.5873333 214.323293,16.422 C214.602293,16.2566667 214.927793,16.1016667 215.299793,15.957 C215.671793,15.8123333 216.074793,15.6935 216.508793,15.6005 C216.942793,15.5075 217.39746,15.461 217.872793,15.461 C218.864793,15.461 219.696626,15.6366667 220.368293,15.988 C221.03996,16.3393333 221.58246,16.8095 221.995793,17.3985 C222.409126,17.9875 222.708793,18.6798333 222.894793,19.4755 C223.080793,20.2711667 223.173793,21.1133333 223.173793,22.002 C223.173793,24.11 222.646793,25.7271667 221.592793,26.8535 C220.538793,27.9798333 219.143793,28.543 217.407793,28.543 Z M232.969793,30.372 C234.85046,30.372 236.333293,30 237.418293,29.256 C238.503293,28.512 239.045793,27.4166667 239.045793,25.97 C239.045793,25.2053333 238.91146,24.5698333 238.642793,24.0635 C238.374126,23.5571667 238.022793,23.1231667 237.588793,22.7615 C237.154793,22.3998333 236.653626,22.0898333 236.085293,21.8315 C235.51696,21.5731667 234.922793,21.32 234.302793,21.072 C233.70346,20.824 233.171293,20.5966667 232.706293,20.39 C232.241293,20.1833333 231.848626,19.9611667 231.528293,19.7235 C231.20796,19.4858333 230.965126,19.212 230.799793,18.902 C230.63446,18.592 230.551793,18.22 230.551793,17.786 C230.551793,17.352 230.644793,16.9851667 230.830793,16.6855 C231.016793,16.3858333 231.264793,16.1378333 231.574793,15.9415 C231.884793,15.7451667 232.241293,15.6005 232.644293,15.5075 C233.047293,15.4145 233.476126,15.368 233.930793,15.368 C235.06746,15.368 235.930293,15.4713333 236.519293,15.678 C237.108293,15.8846667 237.526793,16.05 237.774793,16.174 L237.774793,16.174 L238.239793,14.376 C237.95046,14.2313333 237.449293,14.066 236.736293,13.88 C236.023293,13.694 235.119126,13.601 234.023793,13.601 C232.30846,13.601 230.95996,14.004 229.978293,14.81 C228.996626,15.616 228.505793,16.67 228.505793,17.972 C228.505793,18.654 228.629793,19.2326667 228.877793,19.708 C229.125793,20.1833333 229.45646,20.5915 229.869793,20.9325 C230.283126,21.2735 230.75846,21.5731667 231.295793,21.8315 C231.833126,22.0898333 232.40146,22.343 233.000793,22.591 C233.744793,22.901 234.36996,23.1696667 234.876293,23.397 C235.382626,23.6243333 235.790793,23.862 236.100793,24.11 C236.410793,24.358 236.63296,24.637 236.767293,24.947 C236.901626,25.257 236.968793,25.629 236.968793,26.063 C236.968793,26.9723333 236.591626,27.6181667 235.837293,28.0005 C235.08296,28.3828333 234.127126,28.574 232.969793,28.574 C232.329126,28.574 231.76596,28.5326667 231.280293,28.45 C230.794626,28.3673333 230.376126,28.2691667 230.024793,28.1555 C229.67346,28.0418333 229.39446,27.9385 229.187793,27.8455 C228.981126,27.7525 228.846793,27.6853333 228.784793,27.644 L228.784793,27.644 L228.257793,29.473 C228.505793,29.597 229.001793,29.7778333 229.745793,30.0155 C230.489793,30.2531667 231.56446,30.372 232.969793,30.372 Z" id="mabs" fill="#117000" fill-rule="nonzero"></path>
                    <polygon id="/" fill="#8CE614" fill-rule="nonzero" points="154.094 35.835 164.603 5.827 162.619 5.827 152.048 35.835"></polygon>
                  </g>
                </g>
              </svg>