<svg width="700" height="700" viewBox="0 0 700 700" fill="none" xmlns="http://www.w3.org/2000/svg">
<path d="M700 535.36H0V535.71H700V535.36Z" fill="#EBEBEB"/>
<path d="M333.76 472.92H63.42C61.2999 472.92 59.2666 472.078 57.7674 470.579C56.2682 469.079 55.426 467.046 55.426 464.926V84.924C55.4445 82.816 56.2948 80.8006 57.792 79.3166C59.2892 77.8325 61.312 76.9999 63.42 77H333.76C334.81 77 335.849 77.2068 336.819 77.6085C337.789 78.0102 338.67 78.5991 339.413 79.3414C340.155 80.0837 340.744 80.965 341.146 81.9348C341.547 82.9047 341.754 83.9442 341.754 84.994V464.926C341.754 465.976 341.547 467.015 341.146 467.985C340.744 468.955 340.155 469.836 339.413 470.579C338.67 471.321 337.789 471.91 336.819 472.311C335.849 472.713 334.81 472.92 333.76 472.92ZM63.42 77.28C61.3938 77.2837 59.4517 78.0902 58.019 79.523C56.5863 80.9557 55.7797 82.8978 55.776 84.924V464.926C55.7797 466.952 56.5863 468.894 58.019 470.327C59.4517 471.76 61.3938 472.566 63.42 472.57H333.76C335.786 472.566 337.728 471.76 339.161 470.327C340.594 468.894 341.4 466.952 341.404 464.926V84.924C341.4 82.8978 340.594 80.9557 339.161 79.523C337.728 78.0902 335.786 77.2837 333.76 77.28H63.42Z" fill="#EBEBEB"/>
<path d="M636.58 472.92H366.24C364.12 472.92 362.087 472.078 360.587 470.579C359.088 469.079 358.246 467.046 358.246 464.926V84.924C358.264 82.816 359.115 80.8006 360.612 79.3166C362.109 77.8325 364.132 76.9999 366.24 77H636.58C638.7 77 640.733 77.8422 642.233 79.3414C643.732 80.8406 644.574 82.8739 644.574 84.994V464.926C644.574 467.046 643.732 469.079 642.233 470.579C640.733 472.078 638.7 472.92 636.58 472.92ZM366.24 77.28C364.214 77.2837 362.272 78.0902 360.839 79.523C359.406 80.9557 358.6 82.8978 358.596 84.924V464.926C358.6 466.952 359.406 468.894 360.839 470.327C362.272 471.76 364.214 472.566 366.24 472.57H636.58C638.606 472.566 640.548 471.76 641.981 470.327C643.414 468.894 644.22 466.952 644.224 464.926V84.924C644.22 82.8978 643.414 80.9557 641.981 79.523C640.548 78.0902 638.606 77.2837 636.58 77.28H366.24Z" fill="#EBEBEB"/>
<path d="M700 535.36H0V535.71H700V535.36Z" fill="#EBEBEB"/>
<path d="M629.86 557.886H583.492V558.236H629.86V557.886Z" fill="#EBEBEB"/>
<path d="M463.708 561.694H451.542V562.044H463.708V561.694Z" fill="#EBEBEB"/>
<path d="M582.092 544.894H555.226V545.244H582.092V544.894Z" fill="#EBEBEB"/>
<path d="M133.91 547.246H73.444V547.596H133.91V547.246Z" fill="#EBEBEB"/>
<path d="M315.21 553.154H184.058V553.504H315.21V553.154Z" fill="#EBEBEB"/>
<path d="M246.006 138.883C254.577 130.562 254.78 116.868 246.459 108.297C238.139 99.7254 224.445 99.5222 215.873 107.843C207.302 116.164 207.099 129.858 215.42 138.429C223.74 147.001 237.434 147.204 246.006 138.883Z" fill="#E0E0E0"/>
<path d="M242.621 143.778C253.419 138.669 258.031 125.774 252.922 114.975C247.814 104.177 234.918 99.565 224.12 104.674C213.322 109.783 208.709 122.678 213.818 133.477C218.927 144.275 231.823 148.887 242.621 143.778Z" fill="#F0F0F0"/>
<path d="M248.626 129.682C247.547 132.699 245.599 135.328 243.026 137.237C240.453 139.146 237.372 140.249 234.172 140.407C230.973 140.565 227.798 139.771 225.05 138.124C222.301 136.478 220.103 134.054 218.733 131.158C217.362 128.263 216.881 125.026 217.35 121.856C217.819 118.687 219.218 115.729 221.369 113.354C223.519 110.98 226.326 109.297 229.433 108.517C232.541 107.738 235.809 107.898 238.826 108.976C240.829 109.692 242.672 110.796 244.248 112.224C245.825 113.652 247.104 115.377 248.015 117.299C248.925 119.222 249.447 121.305 249.552 123.43C249.657 125.554 249.342 127.679 248.626 129.682Z" fill="#E6E6E6"/>
<path d="M336.42 179.578C331.841 179.208 327.544 177.222 324.294 173.975C321.045 170.729 319.056 166.432 318.682 161.854H312.2C312.579 168.149 315.251 174.086 319.712 178.544C324.172 183.002 330.111 185.671 336.406 186.046L336.42 179.578Z" fill="#F5F5F5"/>
<path d="M119.266 211.148L119.868 225.526L154.336 216.244L171.402 195.02L190.596 187.81L192.5 192.892L207.06 177.226L185.136 170.184L187.306 175.938L168.154 182.854L151.69 204.568L119.266 211.148Z" fill="#E6E6E6"/>
<path d="M548.884 225.792C551.091 229.719 552.084 234.212 551.737 238.704C551.391 243.195 549.72 247.483 546.937 251.025C544.153 254.567 540.382 257.204 536.1 258.603C531.818 260.002 527.218 260.1 522.88 258.884C518.543 257.669 514.663 255.194 511.731 251.774C508.8 248.353 506.949 244.141 506.411 239.668C505.874 235.196 506.675 230.664 508.713 226.647C510.75 222.629 513.934 219.306 517.86 217.098C520.468 215.631 523.339 214.693 526.31 214.336C529.28 213.979 532.292 214.211 535.173 215.018C538.054 215.825 540.748 217.192 543.1 219.041C545.453 220.89 547.418 223.184 548.884 225.792Z" fill="#E6E6E6"/>
<path d="M546.959 252.321C556.158 243.74 556.658 229.327 548.077 220.128C539.496 210.929 525.083 210.428 515.884 219.009C506.685 227.59 506.184 242.004 514.765 251.203C523.346 260.402 537.76 260.902 546.959 252.321Z" fill="#F0F0F0"/>
<path d="M546.851 242.742C550.806 234.195 547.083 224.06 538.536 220.105C529.989 216.151 519.854 219.873 515.9 228.42C511.945 236.967 515.668 247.102 524.215 251.057C532.762 255.011 542.896 251.289 546.851 242.742Z" fill="#E6E6E6"/>
<path d="M453.012 100.268L431.536 135.912L453.012 148.89V100.268Z" fill="#F5F5F5"/>
<path d="M431.466 142.408L453.082 172.872L453.012 155.288L431.466 142.408Z" fill="#F5F5F5"/>
<path d="M155.246 547.246H146.384V547.596H155.246V547.246Z" fill="#EBEBEB"/>
<path d="M352.996 597.814C502.911 597.814 624.442 590.719 624.442 581.966C624.442 573.214 502.911 566.118 352.996 566.118C203.08 566.118 81.55 573.214 81.55 581.966C81.55 590.719 203.08 597.814 352.996 597.814Z" fill="#F5F5F5"/>
<path d="M388.584 580.832H103.6C97.7578 576.722 93.6354 570.604 92.0212 563.645C90.4069 556.687 91.4141 549.378 94.85 543.116C96.1421 540.583 98.0722 538.431 100.45 536.872C97.2629 530.863 96.3105 523.918 97.762 517.272C99.246 511.014 104.426 506.772 109.774 503.356C105.815 480.449 110.291 456.884 122.374 437.024C134.386 417.508 154.196 404.824 175.98 398.65C174.984 390.295 175.756 381.824 178.246 373.787C180.736 365.75 184.888 358.326 190.433 351.997C195.977 345.668 202.791 340.576 210.431 337.05C218.071 333.525 226.367 331.646 234.78 331.534C235.406 325.603 237.314 319.879 240.372 314.759C243.43 309.639 247.565 305.245 252.49 301.882C257.337 298.585 262.861 296.417 268.657 295.538C274.452 294.658 280.371 295.089 285.978 296.8C286.846 292.6 288.659 288.653 291.278 285.257C293.898 281.861 297.256 279.106 301.098 277.2C304.943 275.386 309.158 274.494 313.409 274.594C317.659 274.693 321.828 275.782 325.584 277.774C337.036 274.526 349.636 280.644 354.83 291.536C360.024 302.428 356.552 316.876 346.962 324.058C357.784 340.186 357.308 365.442 345.814 381.08C352.142 382.788 354.886 391.86 355.824 398.468C358.533 417.675 355.268 437.25 346.472 454.538C358.148 453.978 369.446 462.686 376.404 472.262C379.856 477.123 382.104 482.735 382.964 488.635C383.823 494.535 383.268 500.554 381.346 506.198C388.122 505.778 393.876 511.14 397.208 517.146C399.708 522.133 401.309 527.522 401.94 533.064C402.207 533.618 402.409 534.2 402.542 534.8C406.168 550.732 400.582 569.674 388.584 580.832Z" fill="#62BE0F"/>
<g opacity="0.6">
<path d="M388.584 580.832H103.6C97.7578 576.722 93.6354 570.604 92.0212 563.645C90.4069 556.687 91.4141 549.378 94.85 543.116C96.1421 540.583 98.0722 538.431 100.45 536.872C97.2629 530.863 96.3105 523.918 97.762 517.272C99.246 511.014 104.426 506.772 109.774 503.356C105.815 480.449 110.291 456.884 122.374 437.024C134.386 417.508 154.196 404.824 175.98 398.65C174.984 390.295 175.756 381.824 178.246 373.787C180.736 365.75 184.888 358.326 190.433 351.997C195.977 345.668 202.791 340.576 210.431 337.05C218.071 333.525 226.367 331.646 234.78 331.534C235.406 325.603 237.314 319.879 240.372 314.759C243.43 309.639 247.565 305.245 252.49 301.882C257.337 298.585 262.861 296.417 268.657 295.538C274.452 294.658 280.371 295.089 285.978 296.8C286.846 292.6 288.659 288.653 291.278 285.257C293.898 281.861 297.256 279.106 301.098 277.2C304.943 275.386 309.158 274.494 313.409 274.594C317.659 274.693 321.828 275.782 325.584 277.774C337.036 274.526 349.636 280.644 354.83 291.536C360.024 302.428 356.552 316.876 346.962 324.058C357.784 340.186 357.308 365.442 345.814 381.08C352.142 382.788 354.886 391.86 355.824 398.468C358.533 417.675 355.268 437.25 346.472 454.538C358.148 453.978 369.446 462.686 376.404 472.262C379.856 477.123 382.104 482.735 382.964 488.635C383.823 494.535 383.268 500.554 381.346 506.198C388.122 505.778 393.876 511.14 397.208 517.146C399.708 522.133 401.309 527.522 401.94 533.064C402.207 533.618 402.409 534.2 402.542 534.8C406.168 550.732 400.582 569.674 388.584 580.832Z" fill="white"/>
</g>
<path d="M320.208 254.268L408.282 239.974C408.591 239.928 408.906 239.964 409.196 240.078C409.486 240.192 409.741 240.381 409.936 240.625C410.13 240.869 410.257 241.16 410.303 241.468C410.35 241.777 410.314 242.092 410.2 242.382L376.698 325.08C376.585 325.368 376.398 325.62 376.156 325.812C375.914 326.004 375.625 326.128 375.319 326.172C375.013 326.216 374.701 326.178 374.415 326.063C374.128 325.947 373.878 325.758 373.688 325.514L319.088 257.11C318.895 256.868 318.77 256.579 318.724 256.273C318.679 255.967 318.714 255.654 318.828 255.366C318.941 255.078 319.129 254.825 319.371 254.632C319.613 254.439 319.902 254.314 320.208 254.268Z" fill="#62BE0F"/>
<path opacity="0.2" d="M320.208 254.268L408.282 239.974C408.591 239.928 408.906 239.964 409.196 240.078C409.486 240.192 409.741 240.381 409.936 240.625C410.13 240.869 410.257 241.16 410.303 241.468C410.35 241.777 410.314 242.092 410.2 242.382L376.698 325.08C376.585 325.368 376.398 325.62 376.156 325.812C375.914 326.004 375.625 326.128 375.319 326.172C375.013 326.216 374.701 326.178 374.415 326.063C374.128 325.947 373.878 325.758 373.688 325.514L319.088 257.11C318.895 256.868 318.77 256.579 318.724 256.273C318.679 255.967 318.714 255.654 318.828 255.366C318.941 255.078 319.129 254.825 319.371 254.632C319.613 254.439 319.902 254.314 320.208 254.268Z" fill="white"/>
<path d="M326.494 287.63L331.982 280.532L327.208 274.54L319.06 278.32C319.624 280.285 320.572 282.119 321.848 283.717C323.123 285.315 324.702 286.645 326.494 287.63Z" fill="#263238"/>
<path opacity="0.2" d="M327.208 274.54L325.29 275.422C326.414 278.147 328.288 280.496 330.694 282.198L331.982 280.532L327.208 274.54Z" fill="white"/>
<path opacity="0.4" d="M323.246 276.374L321.72 277.088C323.029 280.427 325.318 283.292 328.286 285.306L329.308 283.976C326.815 281.858 324.756 279.276 323.246 276.374Z" fill="white"/>
<path d="M335.118 283.472C332.687 282.142 330.544 280.343 328.812 278.181C327.079 276.018 325.792 273.534 325.024 270.872L375.662 230.468C378.494 228.2 381.747 226.515 385.234 225.511C388.72 224.506 392.371 224.202 395.976 224.616C395.579 228.221 394.471 231.711 392.717 234.886C390.962 238.06 388.597 240.855 385.756 243.11L335.118 283.472Z" fill="#62BE0F"/>
<path d="M375.662 230.426L327.936 268.52C329.788 273.732 333.338 278.17 338.016 281.12L385.756 243.026C388.597 240.771 390.962 237.976 392.717 234.802C394.471 231.627 395.579 228.137 395.976 224.532C392.369 224.124 388.716 224.435 385.229 225.446C381.743 226.458 378.491 228.151 375.662 230.426Z" fill="#62BE0F"/>
<path opacity="0.5" d="M375.662 230.426L327.936 268.52C329.788 273.732 333.338 278.17 338.016 281.12L385.756 243.026C388.597 240.771 390.962 237.976 392.717 234.802C394.471 231.627 395.579 228.137 395.976 224.532C392.369 224.124 388.716 224.435 385.229 225.446C381.743 226.458 378.491 228.151 375.662 230.426Z" fill="white"/>
<path d="M375.662 230.426L373.478 232.176C375.597 237.234 379.089 241.598 383.558 244.776L385.756 243.026C388.597 240.771 390.962 237.976 392.717 234.802C394.471 231.627 395.579 228.137 395.976 224.532C392.369 224.124 388.716 224.435 385.229 225.446C381.743 226.458 378.491 228.151 375.662 230.426Z" fill="#62BE0F"/>
<path opacity="0.2" d="M375.662 230.426L373.478 232.176C375.597 237.234 379.089 241.598 383.558 244.776L385.756 243.026C388.597 240.771 390.962 237.976 392.717 234.802C394.471 231.627 395.579 228.137 395.976 224.532C392.369 224.124 388.716 224.435 385.229 225.446C381.743 226.458 378.491 228.151 375.662 230.426Z" fill="white"/>
<path d="M353.108 318.878L358.596 311.766L353.822 305.788L345.688 309.568C346.249 311.533 347.194 313.367 348.468 314.965C349.741 316.563 351.318 317.893 353.108 318.878Z" fill="#263238"/>
<path opacity="0.2" d="M353.822 305.788L351.918 306.67C353.036 309.394 354.911 311.741 357.322 313.432L358.596 311.766L353.822 305.788Z" fill="white"/>
<path opacity="0.4" d="M349.874 307.622L348.348 308.322C349.647 311.667 351.932 314.538 354.9 316.554L355.936 315.154C353.446 313.06 351.387 310.502 349.874 307.622Z" fill="white"/>
<path d="M361.746 314.72C356.844 312.024 353.213 307.492 351.652 302.12L402.29 261.716C405.123 259.449 408.376 257.763 411.862 256.757C415.348 255.75 418.999 255.442 422.604 255.85C422.199 259.455 421.088 262.945 419.335 266.121C417.581 269.296 415.219 272.095 412.384 274.358L361.746 314.72Z" fill="#62BE0F"/>
<path d="M402.29 261.674L354.55 299.754C356.408 304.966 359.963 309.404 364.644 312.354L412.384 274.274C415.219 272.011 417.581 269.212 419.335 266.037C421.088 262.861 422.199 259.371 422.604 255.766C418.996 255.364 415.344 255.679 411.857 256.693C408.371 257.707 405.12 259.399 402.29 261.674Z" fill="#62BE0F"/>
<path opacity="0.5" d="M402.29 261.674L354.55 299.754C356.408 304.966 359.963 309.404 364.644 312.354L412.384 274.274C415.219 272.011 417.581 269.212 419.335 266.037C421.088 262.861 422.199 259.371 422.604 255.766C418.996 255.364 415.344 255.679 411.857 256.693C408.371 257.707 405.12 259.399 402.29 261.674Z" fill="white"/>
<path d="M402.29 261.674L400.106 263.41C402.225 268.468 405.717 272.832 410.186 276.01L412.384 274.26C415.219 271.997 417.581 269.198 419.335 266.023C421.088 262.847 422.199 259.357 422.604 255.752C418.995 255.352 415.342 255.669 411.856 256.685C408.37 257.702 405.119 259.397 402.29 261.674Z" fill="#62BE0F"/>
<path opacity="0.2" d="M402.29 261.674L400.106 263.41C402.225 268.468 405.717 272.832 410.186 276.01L412.384 274.26C415.219 271.997 417.581 269.198 419.335 266.023C421.088 262.847 422.199 259.357 422.604 255.752C418.995 255.352 415.342 255.669 411.856 256.685C408.37 257.702 405.119 259.397 402.29 261.674Z" fill="white"/>
<path d="M338.926 308.616L347.802 297.164L340.088 287.49L326.942 293.594C327.849 296.765 329.375 299.726 331.431 302.304C333.488 304.882 336.036 307.028 338.926 308.616Z" fill="#263238"/>
<path opacity="0.2" d="M340.088 287.49L337.008 288.89C338.812 293.285 341.833 297.073 345.716 299.81L347.802 297.136L340.088 287.49Z" fill="white"/>
<path opacity="0.4" d="M333.704 290.458L331.226 291.606C333.337 296.999 337.032 301.626 341.824 304.878L343.49 302.722C339.462 299.309 336.138 295.143 333.704 290.458Z" fill="white"/>
<path d="M352.8 301.91C348.876 299.748 345.417 296.831 342.623 293.328C339.829 289.825 337.754 285.805 336.518 281.498L418.264 216.272C422.838 212.616 428.089 209.899 433.716 208.278C439.342 206.656 445.234 206.161 451.052 206.822C450.406 212.641 448.617 218.275 445.787 223.399C442.957 228.524 439.141 233.039 434.56 236.684L352.8 301.91Z" fill="#62BE0F"/>
<path d="M418.32 216.272L341.32 277.76C344.28 286.202 349.995 293.402 357.546 298.2L434.616 236.712C439.197 233.067 443.013 228.552 445.843 223.427C448.673 218.302 450.462 212.669 451.108 206.85C445.292 206.185 439.401 206.676 433.775 208.292C428.148 209.909 422.896 212.621 418.32 216.272Z" fill="#62BE0F"/>
<path opacity="0.6" d="M418.32 216.272L341.32 277.76C344.28 286.202 349.995 293.402 357.546 298.2L434.616 236.712C439.197 233.067 443.013 228.552 445.843 223.427C448.673 218.302 450.462 212.669 451.108 206.85C445.292 206.185 439.401 206.676 433.775 208.292C428.148 209.909 422.896 212.621 418.32 216.272Z" fill="white"/>
<path d="M418.32 216.272L414.792 219.072C418.205 227.264 423.846 234.336 431.074 239.484L434.616 236.684C439.197 233.039 443.013 228.524 445.843 223.399C448.673 218.275 450.462 212.641 451.108 206.822C445.29 206.161 439.398 206.656 433.772 208.278C428.145 209.899 422.894 212.616 418.32 216.272Z" fill="#62BE0F"/>
<path opacity="0.2" d="M418.32 216.272L414.792 219.072C418.205 227.264 423.846 234.336 431.074 239.484L434.616 236.684C439.197 233.039 443.013 228.524 445.843 223.399C448.673 218.275 450.462 212.641 451.108 206.822C445.29 206.161 439.398 206.656 433.772 208.278C428.145 209.899 422.894 212.616 418.32 216.272Z" fill="white"/>
<path d="M414.862 245.476C413.686 246.412 412.259 246.978 410.762 247.103C409.264 247.228 407.763 246.907 406.448 246.179C405.133 245.452 404.064 244.351 403.374 243.015C402.685 241.68 402.406 240.171 402.574 238.677C402.742 237.184 403.349 235.774 404.318 234.625C405.288 233.477 406.575 232.641 408.019 232.224C409.463 231.807 410.998 231.827 412.43 232.282C413.862 232.737 415.128 233.606 416.066 234.78C417.323 236.359 417.903 238.372 417.677 240.377C417.451 242.383 416.439 244.217 414.862 245.476Z" fill="#62BE0F"/>
<path d="M404.166 244.272C402.972 242.774 402.389 240.88 402.531 238.969C402.674 237.059 403.533 235.272 404.936 233.968C404.775 234.071 404.621 234.183 404.474 234.304C403.694 234.927 403.044 235.698 402.561 236.573C402.078 237.447 401.773 238.408 401.662 239.401C401.551 240.393 401.636 241.398 401.913 242.357C402.19 243.317 402.654 244.213 403.277 244.993C403.9 245.773 404.671 246.424 405.546 246.906C406.42 247.389 407.381 247.694 408.374 247.805C409.366 247.916 410.371 247.831 411.33 247.554C412.29 247.277 413.186 246.813 413.966 246.19L414.386 245.812C412.802 246.891 410.869 247.332 408.974 247.046C407.079 246.76 405.362 245.77 404.166 244.272Z" fill="#62BE0F"/>
<path opacity="0.3" d="M404.166 244.272C402.972 242.774 402.389 240.88 402.531 238.969C402.674 237.059 403.533 235.272 404.936 233.968C404.775 234.071 404.621 234.183 404.474 234.304C403.694 234.927 403.044 235.698 402.561 236.573C402.078 237.447 401.773 238.408 401.662 239.401C401.551 240.393 401.636 241.398 401.913 242.357C402.19 243.317 402.654 244.213 403.277 244.993C403.9 245.773 404.671 246.424 405.546 246.906C406.42 247.389 407.381 247.694 408.374 247.805C409.366 247.916 410.371 247.831 411.33 247.554C412.29 247.277 413.186 246.813 413.966 246.19L414.386 245.812C412.802 246.891 410.869 247.332 408.974 247.046C407.079 246.76 405.362 245.77 404.166 244.272Z" fill="black"/>
<path d="M413.462 243.726C412.631 244.39 411.621 244.792 410.561 244.882C409.501 244.972 408.438 244.745 407.507 244.231C406.576 243.716 405.819 242.937 405.331 241.992C404.843 241.046 404.646 239.978 404.766 238.921C404.885 237.864 405.316 236.866 406.003 236.054C406.69 235.241 407.602 234.651 408.625 234.358C409.647 234.064 410.734 234.081 411.747 234.405C412.76 234.73 413.654 235.347 414.316 236.18C414.758 236.731 415.087 237.363 415.284 238.041C415.48 238.719 415.54 239.43 415.461 240.131C415.382 240.833 415.164 241.511 414.821 242.128C414.478 242.745 414.016 243.288 413.462 243.726Z" fill="white"/>
<path d="M405.762 242.648L415.226 237.902C415.039 237.322 414.755 236.777 414.386 236.292L404.95 241.01C405.129 241.597 405.403 242.15 405.762 242.648Z" fill="#62BE0F"/>
<path d="M407.232 244.034L415.464 239.918C415.499 239.583 415.499 239.245 415.464 238.91L406.462 243.418C406.7 243.646 406.958 243.852 407.232 244.034Z" fill="#62BE0F"/>
<g opacity="0.7">
<path d="M405.762 242.648L415.226 237.902C415.039 237.322 414.755 236.777 414.386 236.292L404.95 241.01C405.129 241.597 405.403 242.15 405.762 242.648Z" fill="white"/>
<path d="M407.232 244.034L415.464 239.918C415.499 239.583 415.499 239.245 415.464 238.91L406.462 243.418C406.7 243.646 406.958 243.852 407.232 244.034Z" fill="white"/>
</g>
<path d="M507.164 328.076H431.928V580.636H507.164V328.076Z" fill="#62BE0F"/>
<path opacity="0.2" d="M452.998 328.048H431.746V580.496H452.998V328.048Z" fill="black"/>
<path d="M166.082 510.398H90.846V580.65H166.082V510.398Z" fill="#62BE0F"/>
<path opacity="0.2" d="M111.398 510.328H90.146V580.51H111.398V510.328Z" fill="black"/>
<path d="M275.31 449.624H200.074V580.636H275.31V449.624Z" fill="#62BE0F"/>
<path opacity="0.2" d="M220.808 449.568H199.556V580.51H220.808V449.568Z" fill="black"/>
<path d="M392.322 388.85H317.086V580.636H392.322V388.85Z" fill="#62BE0F"/>
<path opacity="0.2" d="M337.988 388.808H316.736V580.51H337.988V388.808Z" fill="black"/>
<path d="M616.392 267.302H541.156V580.636H616.392V267.302Z" fill="#62BE0F"/>
<path opacity="0.2" d="M562.408 267.302H541.156V580.51H562.408V267.302Z" fill="black"/>
<path d="M240.688 408.576L234.472 429.786L243.628 431.928L250.6 411.628L240.688 408.576Z" fill="#FF8B7B"/>
<path d="M245.686 429.478L235.2 427.448C234.999 427.418 234.795 427.457 234.619 427.559C234.444 427.661 234.308 427.819 234.234 428.008L230.468 436.828C230.297 437.187 230.273 437.599 230.401 437.975C230.529 438.352 230.799 438.664 231.154 438.844L231.448 438.942C235.256 439.6 238.686 440.02 243.418 440.93C249.018 442.008 247.436 442.456 253.988 443.814C257.922 444.626 259.588 439.95 258.006 439.39C250.53 436.884 250.236 434.252 247.87 430.738C247.336 430.047 246.551 429.594 245.686 429.478Z" fill="#263238"/>
<path d="M191.17 270.13L227.304 292.25L189.448 298.886L191.17 270.13Z" fill="#263238"/>
<path d="M249.088 421.904L236.04 419.566C236.04 419.566 240.898 401.478 246.162 376.754C246.974 372.946 257.46 343.966 257.46 343.966C257.46 343.966 205.66 319.69 204.834 319.424C204.176 319.214 199.934 318.892 193.312 313.712C180.992 304.08 184.912 285.236 184.912 285.236L217.112 286.006C248.542 302.806 275.828 327.348 279.51 337.4C284.69 351.554 249.088 421.904 249.088 421.904Z" fill="#263238"/>
<path d="M119.798 399.126L98.28 404.194L100.954 413.224L122.038 409.248L119.798 399.126Z" fill="#FF8B7B"/>
<path d="M104.09 413.784L100.646 403.62C100.57 403.431 100.435 403.273 100.26 403.169C100.086 403.065 99.8817 403.022 99.68 403.046L90.146 404.138C89.7498 404.167 89.3808 404.35 89.1188 404.649C88.8568 404.948 88.7229 405.337 88.746 405.734C88.7328 405.831 88.7328 405.93 88.746 406.028C90.062 409.668 91.378 412.86 92.946 417.424C94.78 422.814 93.618 421.624 95.746 428.036C96.978 431.872 101.892 431.032 101.57 429.338C100.058 421.61 102.2 420.056 104.09 416.262C104.412 415.467 104.412 414.579 104.09 413.784Z" fill="#263238"/>
<path d="M112.364 413L107.954 400.512L176.4 362.362C176.4 362.362 171.934 305.368 171.724 304.486C171.514 303.604 169.764 299.964 170.996 291.634C173.278 276.234 191.562 270.228 191.562 270.228L207.2 303.226C207.2 303.226 199.934 370.118 193.018 378.28C183.288 389.774 112.364 413 112.364 413Z" fill="#263238"/>
<path opacity="0.2" d="M204.834 319.424L193.312 313.712L202.188 341.04L204.834 319.424Z" fill="black"/>
<path d="M232.4 229.712C226.464 230.986 220.5 232.12 214.536 233.226L210.056 234.038L206.066 234.724C204.338 235.092 202.748 235.936 201.474 237.16L195.188 243.6C193.088 245.784 190.988 247.968 188.846 250.11C184.646 254.422 180.306 258.72 175.938 262.948C175.249 263.614 174.337 263.998 173.379 264.027C172.421 264.056 171.488 263.727 170.76 263.104C170.032 262.481 169.562 261.609 169.443 260.659C169.323 259.708 169.563 258.747 170.114 257.964C173.586 252.994 177.114 248.164 180.754 243.236C182.532 240.772 184.352 238.364 186.172 235.956L191.772 228.578C194.526 225.249 198.189 222.792 202.314 221.508L207.158 220.192L211.526 219.044C217.364 217.56 223.188 216.076 229.054 214.732C230.958 214.486 232.886 214.961 234.459 216.063C236.031 217.165 237.135 218.814 237.554 220.688C237.973 222.562 237.677 224.525 236.723 226.192C235.77 227.859 234.228 229.109 232.4 229.698V229.712Z" fill="#62BE0F"/>
<path opacity="0.1" d="M232.4 229.712C226.464 230.986 220.5 232.12 214.536 233.226L210.056 234.038L206.066 234.724C204.338 235.092 202.748 235.936 201.474 237.16L195.188 243.6C193.088 245.784 190.988 247.968 188.846 250.11C184.646 254.422 180.306 258.72 175.938 262.948C175.249 263.614 174.337 263.998 173.379 264.027C172.421 264.056 171.488 263.727 170.76 263.104C170.032 262.481 169.562 261.609 169.443 260.659C169.323 259.708 169.563 258.747 170.114 257.964C173.586 252.994 177.114 248.164 180.754 243.236C182.532 240.772 184.352 238.364 186.172 235.956L191.772 228.578C194.526 225.249 198.189 222.792 202.314 221.508L207.158 220.192L211.526 219.044C217.364 217.56 223.188 216.076 229.054 214.732C230.958 214.486 232.886 214.961 234.459 216.063C236.031 217.165 237.135 218.814 237.554 220.688C237.973 222.562 237.677 224.525 236.723 226.192C235.77 227.859 234.228 229.109 232.4 229.698V229.712Z" fill="black"/>
<path d="M168.924 257.88L159.684 261.464L168.084 269.556L175.084 263.956C175.281 263.801 175.444 263.608 175.563 263.388C175.682 263.168 175.755 262.926 175.778 262.677C175.8 262.428 175.771 262.177 175.693 261.939C175.614 261.702 175.488 261.483 175.322 261.296C174.535 260.331 173.564 259.532 172.466 258.946C171.368 258.359 170.164 257.997 168.924 257.88Z" fill="#FF8B7B"/>
<path d="M159.684 261.464L158.284 264.152C157.935 264.798 157.825 265.547 157.973 266.267C158.122 266.986 158.519 267.631 159.096 268.086L162.064 270.41C162.507 270.76 163.037 270.982 163.597 271.054C164.157 271.125 164.725 271.043 165.242 270.816L168.042 269.556L159.684 261.464Z" fill="#FF8B7B"/>
<path d="M280.658 206.346C281.064 206.542 281.148 207.2 280.84 207.746C280.532 208.292 279.972 208.698 279.58 208.502C279.188 208.306 279.104 207.648 279.398 207.032C279.692 206.416 280.266 206.136 280.658 206.346Z" fill="#263238"/>
<path d="M280.378 206.822C280.9 206.922 281.441 206.832 281.904 206.57C281.642 206.596 281.377 206.569 281.124 206.493C280.872 206.416 280.637 206.29 280.434 206.122C280.481 206.235 280.5 206.357 280.49 206.479C280.481 206.6 280.442 206.718 280.378 206.822Z" fill="#263238"/>
<path d="M276.892 212.66C277.327 213.033 277.838 213.306 278.389 213.461C278.94 213.615 279.519 213.648 280.084 213.556C279.667 211.361 279.549 209.119 279.734 206.892L276.892 212.66Z" fill="#FF5652"/>
<path d="M278.446 203.21C278.935 203.096 279.444 203.1 279.93 203.222C280.417 203.344 280.868 203.58 281.246 203.91L281.33 204.008C281.373 204.041 281.422 204.064 281.474 204.078C281.527 204.091 281.581 204.094 281.635 204.087C281.688 204.079 281.739 204.06 281.786 204.032C281.832 204.004 281.872 203.968 281.904 203.924C281.936 203.882 281.96 203.834 281.973 203.783C281.987 203.732 281.989 203.678 281.982 203.626C281.974 203.574 281.955 203.523 281.928 203.478C281.9 203.433 281.863 203.394 281.82 203.364C281.361 202.931 280.805 202.616 280.197 202.446C279.59 202.275 278.951 202.254 278.334 202.384C278.24 202.399 278.155 202.449 278.096 202.524C278.023 202.602 277.983 202.704 277.983 202.811C277.983 202.918 278.023 203.02 278.096 203.098C278.143 203.14 278.199 203.172 278.259 203.191C278.319 203.211 278.383 203.217 278.446 203.21Z" fill="#263238"/>
<path d="M250.502 231.826C241.43 224.826 243.922 218.834 243.922 218.834C248.668 218.33 252.588 213.64 255.388 208.922C255.32 210.503 255.543 212.083 256.046 213.584C257.068 216.692 263.522 218.106 263.522 218.106C263.522 218.106 262.892 218.904 262.122 220.094C260.05 223.02 256.788 228.424 258.734 231.196C258.664 231.196 260.484 239.54 250.502 231.826Z" fill="#FF8B7B"/>
<path d="M263.088 218.946C262.668 219.282 262.248 219.618 261.842 220.01C261.797 220.026 261.747 220.026 261.702 220.01C260.374 219.399 259.19 218.517 258.225 217.42C257.261 216.322 256.537 215.035 256.102 213.64C255.592 212.136 255.369 210.55 255.444 208.964C256.172 207.774 256.844 206.556 257.376 205.436L262.976 218.512L263.088 218.946Z" fill="#FF8B7B"/>
<path d="M275.324 216.692C274.076 218.221 272.461 219.408 270.63 220.143C268.798 220.877 266.81 221.135 264.852 220.892C263.831 220.778 262.834 220.504 261.898 220.08C261.853 220.096 261.803 220.096 261.758 220.08C260.43 219.47 259.246 218.587 258.281 217.49C257.317 216.392 256.593 215.105 256.158 213.71C255.648 212.206 255.425 210.62 255.5 209.034C255.654 205.226 257.46 201.432 259.784 195.902C260.511 194.095 261.689 192.504 263.205 191.281C264.721 190.058 266.525 189.244 268.445 188.915C270.365 188.587 272.337 188.755 274.174 189.405C276.01 190.055 277.649 191.163 278.936 192.626C284.704 199.108 280.252 210.728 275.324 216.692Z" fill="#FF8B7B"/>
<path opacity="0.2" d="M264.222 220.64C263.47 220.598 262.734 220.413 262.052 220.094C262.892 218.904 263.536 218.12 263.452 218.106L265.174 216.202C265.174 216.202 263.746 220.262 264.222 220.64Z" fill="black"/>
<path d="M282.632 202.566C280.994 203.154 277.914 202.314 278.208 202.118C279.356 201.46 280.742 199.556 279.216 199.038C278.964 200.046 275.562 206.374 274.582 206.682C274.05 206.864 270.382 211.106 265.328 213.528C261.366 215.46 260.596 216.426 260.596 216.426L253.596 212.772C251.524 210.672 246.526 191.87 257.124 188.286C260.596 187.11 263.256 184.17 268.772 185.752C272.174 186.732 276.164 186.13 279.51 187.292C281.217 187.791 282.777 188.698 284.055 189.935C285.333 191.172 286.291 192.7 286.846 194.39C287.224 196.07 286.776 201.11 282.632 202.566Z" fill="#263238"/>
<path d="M276.248 204.078C277.648 206.122 276.486 209.678 275.17 211.526C273.854 213.374 271.432 213.752 270.76 211.092C270.279 209.07 270.471 206.947 271.306 205.044C272.356 202.776 274.792 202.034 276.248 204.078Z" fill="#FF8B7B"/>
<path d="M238.784 220.038C238.784 220.038 243.586 216.832 246.764 217.14C249.942 217.448 258.076 226.156 259.084 227.864C260.092 229.572 258.902 234.066 258.902 234.066L238.784 220.038Z" fill="#62BE0F"/>
<path opacity="0.3" d="M238.784 220.038C238.784 220.038 243.586 216.832 246.764 217.14C249.942 217.448 258.076 226.156 259.084 227.864C260.092 229.572 258.902 234.066 258.902 234.066L238.784 220.038Z" fill="white"/>
<path d="M261.352 234.878C260.408 233.711 259.398 232.598 258.328 231.546C253.552 227.392 248.541 223.517 243.32 219.94C241.416 218.69 239.411 217.599 237.328 216.678C235.29 215.735 232.983 215.548 230.819 216.148C228.655 216.747 226.774 218.096 225.512 219.954C218.274 230.65 216.566 238.952 211.75 245.952C205.466 254.929 198.124 263.118 189.882 270.34L195.874 276.752C205.203 283.977 215.892 289.248 227.304 292.25C227.304 292.25 238.21 274.834 244.468 270.396C261.562 258.258 260.54 253.4 263.2 248.15C264.278 246.012 264.678 243.596 264.348 241.225C264.018 238.854 262.973 236.64 261.352 234.878Z" fill="#62BE0F"/>
<path d="M263.2 248.164C262.248 250.026 261.8 251.874 260.75 254.016C258.841 257.8 256.155 261.139 252.868 263.816C250.197 266.173 247.392 268.375 244.468 270.41C241.832 272.579 239.48 275.072 237.468 277.83C236.333 279.281 235.67 281.047 235.57 282.887C235.47 284.727 235.937 286.554 236.908 288.12C241.346 295.358 248.108 305.69 248.108 305.69C243.292 304.43 241.332 303.912 233.674 306.334C221.69 310.114 196.56 306.782 189.476 296.66C191.374 291.928 194.357 287.708 198.184 284.34C193.793 287.248 189.766 290.669 186.186 294.532C183.022 295.19 179.816 293.454 177.534 291.2C175.252 288.946 173.544 286.118 171.346 283.78C169.148 281.442 166.74 279.23 163.534 279.51C167.734 273.91 174.832 271.614 181.51 269.71C186.494 268.31 192.85 266.21 197.61 263.06C202.835 257.804 207.581 252.092 211.792 245.994C216.594 238.994 218.288 230.692 225.554 219.982C226.814 218.122 228.695 216.772 230.86 216.171C233.024 215.571 235.332 215.761 237.37 216.706C239.453 217.632 241.458 218.728 243.362 219.982C248.573 223.557 253.579 227.422 258.356 231.56C259.423 232.62 260.432 233.737 261.38 234.906C262.988 236.673 264.023 238.885 264.348 241.252C264.673 243.619 264.273 246.029 263.2 248.164Z" fill="#62BE0F"/>
<path d="M329.434 229.894L336.644 226.772C336.942 226.642 337.224 226.477 337.484 226.282L340.732 223.748C340.957 223.575 341.125 223.338 341.212 223.068C341.3 222.798 341.303 222.508 341.222 222.236L337.932 217C337.836 216.613 337.599 216.275 337.268 216.053C336.937 215.83 336.535 215.739 336.14 215.796L331.268 217.616C330.901 217.747 330.574 217.968 330.316 218.26L325.43 223.58C325.234 223.83 325.108 224.128 325.066 224.443C325.024 224.758 325.068 225.079 325.192 225.372L327.348 228.788C327.489 229.203 327.784 229.549 328.172 229.755C328.559 229.96 329.011 230.01 329.434 229.894Z" fill="#FF8B7B"/>
<path opacity="0.2" d="M252.854 263.788L255.962 246.848L262.542 250.39C260.218 256.536 257.488 259.672 252.854 263.788Z" fill="black"/>
<path d="M300.412 252.084C309.4 245.84 320.684 237.02 328.916 229.922C329.686 227.206 327.124 223.636 324.52 224.728C318.038 227.444 298.676 238.182 295.26 238.28C292.908 238.35 268.66 234.85 260.736 233.702C259.161 233.457 257.551 233.801 256.214 234.668C251.832 237.636 250.712 240.884 250.964 243.74C251.217 245.911 252.227 247.924 253.817 249.425C255.408 250.925 257.475 251.817 259.658 251.944C270.732 252.77 287.336 253.694 293.804 253.974C296.155 254.09 298.478 253.426 300.412 252.084Z" fill="#62BE0F"/>
<path d="M270.018 209.482C267.47 216.804 264.054 230.776 258.44 236.082C252.826 241.388 244.944 241.682 237.44 243.446C235.634 243.894 233.324 246.176 233.352 245.812C231.49 247.889 230.312 250.49 229.978 253.26L221.816 246.89C220.997 246.348 220.323 245.612 219.856 244.748C219.61 243.956 219.565 243.116 219.724 242.302C219.882 241.488 220.241 240.727 220.766 240.086C221.798 238.373 222.625 236.546 223.23 234.64C220.399 236.758 218.28 239.688 217.154 243.04C213.178 241.64 208.53 238.294 208.446 234.066C208.416 232.392 208.738 230.731 209.392 229.189C210.046 227.648 211.016 226.262 212.24 225.12C209.459 226.593 207.207 228.899 205.8 231.714C204.946 229.208 202.86 226.716 200.2 226.8C202.235 222.282 204.847 218.047 207.97 214.2C211.246 210.518 215.712 207.62 220.57 207.284C224.322 207.018 228.004 208.236 231.588 209.37C235.172 210.504 238.896 211.61 242.62 211.134C246.344 210.658 250.18 204.946 250.88 201.25C256.2 198.198 263.676 205.702 270.018 209.482Z" fill="#263238"/>
<path opacity="0.2" d="M294.826 202.818C294.453 210.091 291.207 216.919 285.801 221.799C280.396 226.679 273.273 229.214 266 228.844H265.902C264.76 228.776 263.624 228.635 262.5 228.424C257.165 220.891 249.975 214.863 241.626 210.924C241.242 209.872 240.924 208.796 240.674 207.704C239.779 203.879 239.715 199.906 240.488 196.054C241.26 192.202 242.85 188.56 245.15 185.375C247.45 182.191 250.407 179.536 253.821 177.592C257.235 175.648 261.026 174.46 264.939 174.107C268.852 173.754 272.795 174.244 276.502 175.546C280.208 176.848 283.593 178.929 286.426 181.651C289.259 184.373 291.475 187.671 292.924 191.322C294.373 194.974 295.022 198.894 294.826 202.818Z" fill="black"/>
<path d="M276.71 227.276C273.284 228.502 269.648 229.035 266.014 228.844H265.916C264.77 228.777 263.629 228.637 262.5 228.424C257.168 220.887 249.977 214.859 241.626 210.924C241.235 209.874 240.917 208.798 240.674 207.704C239.84 204.169 239.716 200.504 240.31 196.921C240.903 193.338 242.202 189.909 244.13 186.832C246.059 183.754 248.579 181.09 251.545 178.995C254.511 176.899 257.863 175.412 261.408 174.622C263.018 175.427 264.425 176.585 265.524 178.01C267.808 181.301 269.189 185.134 269.528 189.126C270.341 195.14 270.199 201.244 269.108 207.214C268.265 211.311 268.665 215.567 270.256 219.436C273 225.652 276.71 227.276 276.71 227.276Z" fill="#62BE0F"/>
<path opacity="0.4" d="M276.71 227.276C273.284 228.502 269.648 229.035 266.014 228.844H265.916C264.77 228.777 263.629 228.637 262.5 228.424C257.168 220.887 249.977 214.859 241.626 210.924C241.235 209.874 240.917 208.798 240.674 207.704C239.84 204.169 239.716 200.504 240.31 196.921C240.903 193.338 242.202 189.909 244.13 186.832C246.059 183.754 248.579 181.09 251.545 178.995C254.511 176.899 257.863 175.412 261.408 174.622C263.018 175.427 264.425 176.585 265.524 178.01C267.808 181.301 269.189 185.134 269.528 189.126C270.341 195.14 270.199 201.244 269.108 207.214C268.265 211.311 268.665 215.567 270.256 219.436C273 225.652 276.71 227.276 276.71 227.276Z" fill="white"/>
<path d="M265.566 230.86C265.442 230.972 265.296 231.059 265.137 231.113C264.979 231.168 264.811 231.19 264.643 231.178C264.476 231.167 264.313 231.121 264.163 231.045C264.014 230.968 263.882 230.863 263.774 230.734C263.326 230.006 262.85 229.334 262.374 228.578C257.162 220.958 250.061 214.822 241.766 210.77C240.912 210.336 240.058 209.944 239.204 209.566C238.35 209.188 238.574 208.166 239.204 207.592C239.442 207.42 239.729 207.327 240.023 207.327C240.317 207.327 240.604 207.42 240.842 207.592C241.039 207.702 241.2 207.868 241.304 208.068C251.16 212.809 259.602 220.049 265.79 229.068C265.97 229.345 266.047 229.677 266.006 230.005C265.965 230.333 265.809 230.636 265.566 230.86Z" fill="#62BE0F"/>
<path d="M271.32 203.728C271.32 204.207 271.178 204.675 270.912 205.074C270.646 205.472 270.267 205.782 269.825 205.966C269.382 206.149 268.895 206.197 268.426 206.103C267.956 206.01 267.524 205.779 267.185 205.441C266.847 205.102 266.616 204.67 266.523 204.2C266.429 203.731 266.477 203.244 266.66 202.801C266.844 202.358 267.154 201.98 267.552 201.714C267.951 201.448 268.419 201.306 268.898 201.306C269.54 201.306 270.156 201.561 270.611 202.015C271.065 202.47 271.32 203.086 271.32 203.728Z" fill="#263238"/>
<path d="M272.132 204.4C272.135 204.883 271.994 205.356 271.727 205.758C271.461 206.161 271.08 206.476 270.635 206.662C270.189 206.848 269.698 206.897 269.224 206.804C268.75 206.71 268.315 206.478 267.974 206.136C267.632 205.795 267.4 205.359 267.306 204.886C267.213 204.412 267.262 203.921 267.448 203.475C267.634 203.029 267.949 202.649 268.351 202.383C268.754 202.116 269.227 201.975 269.71 201.978C270.351 201.981 270.965 202.238 271.419 202.691C271.872 203.145 272.128 203.759 272.132 204.4Z" fill="#62BE0F"/>
<path opacity="0.7" d="M272.132 204.4C272.135 204.883 271.994 205.356 271.727 205.758C271.461 206.161 271.08 206.476 270.635 206.662C270.189 206.848 269.698 206.897 269.224 206.804C268.75 206.71 268.315 206.478 267.974 206.136C267.632 205.795 267.4 205.359 267.306 204.886C267.213 204.412 267.262 203.921 267.448 203.475C267.634 203.029 267.949 202.649 268.351 202.383C268.754 202.116 269.227 201.975 269.71 201.978C270.351 201.981 270.965 202.238 271.419 202.691C271.872 203.145 272.128 203.759 272.132 204.4Z" fill="white"/>
<path d="M613.634 145.782C613.634 154.897 610.013 163.639 603.567 170.085C597.122 176.531 588.38 180.152 579.264 180.152C578.494 180.152 577.738 180.152 576.968 180.068C568.25 179.51 560.071 175.654 554.094 169.283C548.117 162.912 544.79 154.504 544.79 145.768C544.79 137.032 548.117 128.624 554.094 122.252C560.071 115.881 568.25 112.025 576.968 111.468C577.738 111.468 578.494 111.468 579.264 111.468C588.37 111.468 597.103 115.081 603.547 121.515C609.992 127.948 613.619 136.676 613.634 145.782Z" fill="#62BE0F"/>
<path opacity="0.2" d="M609 145.782C608.59 152.05 606.356 158.061 602.573 163.076C598.789 168.09 593.622 171.888 587.707 174.003C581.792 176.117 575.388 176.455 569.283 174.975C563.178 173.496 557.64 170.263 553.349 165.675C549.059 161.086 546.204 155.344 545.137 149.153C544.069 142.963 544.836 136.596 547.342 130.836C549.848 125.076 553.984 120.175 559.24 116.736C564.497 113.297 570.644 111.471 576.926 111.482C585.627 112.061 593.782 115.927 599.738 122.296C605.694 128.666 609.005 137.062 609 145.782Z" fill="white"/>
<path opacity="0.4" d="M600.667 155.618C606.102 142.495 599.871 127.451 586.748 122.016C573.626 116.58 558.581 122.812 553.146 135.934C547.71 149.056 553.942 164.101 567.064 169.536C580.187 174.972 595.231 168.74 600.667 155.618Z" fill="white"/>
<path opacity="0.4" d="M581.342 164.102C591.553 161.692 597.878 151.46 595.468 141.248C593.057 131.037 582.825 124.712 572.614 127.122C562.402 129.532 556.077 139.765 558.488 149.976C560.898 160.188 571.13 166.512 581.342 164.102Z" fill="white"/>
<path d="M583.184 145.782C583.184 147.249 582.749 148.684 581.933 149.904C581.118 151.124 579.959 152.075 578.604 152.637C577.248 153.199 575.756 153.346 574.316 153.059C572.877 152.773 571.555 152.066 570.517 151.029C569.48 149.991 568.773 148.669 568.487 147.229C568.2 145.79 568.347 144.298 568.909 142.942C569.47 141.586 570.421 140.428 571.642 139.612C572.862 138.797 574.296 138.362 575.764 138.362C576.739 138.36 577.705 138.551 578.606 138.923C579.507 139.295 580.325 139.842 581.015 140.531C581.704 141.22 582.251 142.039 582.623 142.94C582.995 143.841 583.186 144.807 583.184 145.782Z" fill="#263238"/>
<path d="M524.216 171.276L531.09 172.396L541.17 166.446V166.432L536.032 164.164L524.216 171.276Z" fill="#62BE0F"/>
<path d="M571.77 147.689L530.831 171.919L531.352 172.798L572.291 148.568L571.77 147.689Z" fill="#263238"/>
<path d="M530.208 178.542L540.148 172.648L541.17 166.446L531.09 172.396L530.208 178.542Z" fill="#62BE0F"/>
<path opacity="0.2" d="M530.208 178.542L540.148 172.648L541.17 166.446L531.09 172.396L530.208 178.542Z" fill="black"/>
<path d="M574.686 145.404L567.854 147.154L574.084 150.584L576.898 146.118L574.686 145.404Z" fill="white"/>
<path d="M578.2 101.892C577.865 101.901 577.531 101.844 577.218 101.723C576.906 101.603 576.62 101.421 576.378 101.19C576.135 100.958 575.942 100.68 575.808 100.373C575.673 100.066 575.601 99.735 575.596 99.3999V88.1999C575.596 87.5241 575.864 86.876 576.342 86.3981C576.82 85.9203 577.468 85.6519 578.144 85.6519C578.82 85.6519 579.468 85.9203 579.946 86.3981C580.424 86.876 580.692 87.5241 580.692 88.1999V99.3999C580.681 100.057 580.415 100.685 579.95 101.15C579.485 101.615 578.858 101.881 578.2 101.892Z" fill="#62BE0F"/>
<path d="M578.2 206.038C577.865 206.04 577.533 205.975 577.223 205.848C576.913 205.72 576.631 205.533 576.394 205.296C576.157 205.059 575.97 204.777 575.842 204.467C575.715 204.157 575.65 203.825 575.652 203.49V192.29C575.652 191.614 575.92 190.966 576.398 190.488C576.876 190.01 577.524 189.742 578.2 189.742C578.876 189.742 579.524 190.01 580.002 190.488C580.48 190.966 580.748 191.614 580.748 192.29V203.49C580.75 203.825 580.685 204.157 580.558 204.467C580.43 204.777 580.243 205.059 580.006 205.296C579.769 205.533 579.487 205.72 579.177 205.848C578.867 205.975 578.535 206.04 578.2 206.038Z" fill="#62BE0F"/>
<path d="M531.832 146.734H520.562C520.211 146.76 519.858 146.713 519.525 146.597C519.192 146.48 518.888 146.296 518.629 146.056C518.371 145.816 518.165 145.526 518.024 145.203C517.883 144.88 517.811 144.531 517.811 144.179C517.811 143.827 517.883 143.478 518.024 143.155C518.165 142.832 518.371 142.541 518.629 142.302C518.888 142.062 519.192 141.878 519.525 141.761C519.858 141.645 520.211 141.598 520.562 141.624H531.832C532.183 141.598 532.536 141.645 532.869 141.761C533.202 141.878 533.506 142.062 533.765 142.302C534.023 142.541 534.229 142.832 534.37 143.155C534.511 143.478 534.583 143.827 534.583 144.179C534.583 144.531 534.511 144.88 534.37 145.203C534.229 145.526 534.023 145.816 533.765 146.056C533.506 146.296 533.202 146.48 532.869 146.597C532.536 146.713 532.183 146.76 531.832 146.734Z" fill="#62BE0F"/>
<path d="M637.196 146.734H625.912C625.267 146.686 624.664 146.396 624.224 145.922C623.784 145.448 623.539 144.825 623.539 144.179C623.539 143.532 623.784 142.909 624.224 142.435C624.664 141.961 625.267 141.672 625.912 141.624H637.196C637.841 141.672 638.444 141.961 638.884 142.435C639.324 142.909 639.569 143.532 639.569 144.179C639.569 144.825 639.324 145.448 638.884 145.922C638.444 146.396 637.841 146.686 637.196 146.734Z" fill="#62BE0F"/>
</svg>
