<?xml version="1.0" encoding="UTF-8"?>
<svg width="468px" height="446px" viewBox="0 0 468 446" version="1.1" xmlns="http://www.w3.org/2000/svg" xmlns:xlink="http://www.w3.org/1999/xlink">
    <title>nem-human</title>
    <g id="Page-1" stroke="none" stroke-width="1" fill="none" fill-rule="evenodd">
        <g id="nem-human" transform="translate(0.122809, 0.654887)">
            <g id="freepik--Graphics--inject-153" transform="translate(27.147191, 20.845113)" fill-rule="nonzero">
                <path d="M293.23,362.850168 C292.239214,362.862752 291.388457,362.148116 291.23,361.17 C287.31,337.23 311.91,321.08 312.96,320.4 C313.12,320.29 336.22,303.78 336.22,289.57 C336.22,279.77 326.94,272.38 316.22,263.83 C311.33304,260.09441 306.659059,256.088141 302.22,251.83 C287.43,237.03 290.31,224.22 290.44,223.68 C290.708897,222.619676 291.779769,221.9721 292.843676,222.226453 C293.907583,222.480806 294.569761,223.54271 294.33,224.61 C294.22,225.11 291.97,235.92 305.05,249 C309.387619,253.152751 313.954795,257.058888 318.73,260.7 C329.8,269.52 340.26,277.84 340.26,289.57 C340.26,305.84 316.26,323 315.26,323.72 C314.96,323.92 291.75,339.19 295.26,360.53 C295.434309,361.617428 294.696691,362.641153 293.61,362.82 L293.23,362.850168 Z" id="Path" fill="#787878"></path>
                <path d="M337.17,362.85 L336.85,362.85 C335.763309,362.671153 335.025691,361.647428 335.2,360.56 C338.69,339.22 315.48,323.95 315.2,323.8 C314.11,323.03 290.11,305.87 290.11,289.6 C290.11,277.87 300.57,269.55 311.65,260.73 C316.411361,257.076459 320.968239,253.163887 325.3,249.01 C338.4,235.9 336.12,225.07 336.02,224.62 C335.780239,223.55271 336.442417,222.490806 337.506324,222.236453 C338.570231,221.9821 339.641103,222.629676 339.91,223.69 C340.04,224.23 342.91,237.04 328.12,251.84 C323.681124,256.098343 319.007132,260.104622 314.12,263.84 C303.37,272.39 294.12,279.78 294.12,289.58 C294.12,303.8 317.22,320.3 317.45,320.46 C318.45,321.09 343.03,337.24 339.11,361.18 C338.950904,362.131794 338.134871,362.834255 337.17,362.85 Z" id="Path" fill="#787878"></path>
                <path d="M337.26,232.32 L293.65,232.32 C293.097715,232.32 292.65,231.872285 292.65,231.32 C292.65,230.767715 293.097715,230.32 293.65,230.32 L337.26,230.32 C337.812285,230.32 338.26,230.767715 338.26,231.32 C338.26,231.872285 337.812285,232.32 337.26,232.32 L337.26,232.32 Z" id="Path" fill="#787878"></path>
                <path d="M337.26,236.95 L293.65,236.95 C293.097715,236.95 292.65,236.502285 292.65,235.95 C292.65,235.397715 293.097715,234.95 293.65,234.95 L337.26,234.95 C337.812285,234.95 338.26,235.397715 338.26,235.95 C338.26,236.502285 337.812285,236.95 337.26,236.95 L337.26,236.95 Z" id="Path" fill="#787878"></path>
                <path d="M334.78,241.57 L296.12,241.57 C295.567715,241.57 295.12,241.122285 295.12,240.57 C295.12,240.017715 295.567715,239.57 296.12,239.57 L334.78,239.57 C335.332285,239.57 335.78,240.017715 335.78,240.57 C335.78,241.122285 335.332285,241.57 334.78,241.57 L334.78,241.57 Z" id="Path" fill="#787878"></path>
                <path d="M331.06,246.2 L299.84,246.2 C299.287715,246.2 298.84,245.752285 298.84,245.2 C298.84,244.647715 299.287715,244.2 299.84,244.2 L331.06,244.2 C331.612285,244.2 332.06,244.647715 332.06,245.2 C332.06,245.752285 331.612285,246.2 331.06,246.2 L331.06,246.2 Z" id="Path" fill="#787878"></path>
                <path d="M337.26,354.93 L293.65,354.93 C293.097715,354.93 292.65,354.482285 292.65,353.93 C292.65,353.377715 293.097715,352.93 293.65,352.93 L337.26,352.93 C337.812285,352.93 338.26,353.377715 338.26,353.93 C338.26,354.482285 337.812285,354.93 337.26,354.93 L337.26,354.93 Z" id="Path" fill="#787878"></path>
                <path d="M337.26,350.3 L293.65,350.3 C293.097715,350.3 292.65,349.852285 292.65,349.3 C292.65,348.747715 293.097715,348.3 293.65,348.3 L337.26,348.3 C337.812285,348.3 338.26,348.747715 338.26,349.3 C338.26,349.852285 337.812285,350.3 337.26,350.3 L337.26,350.3 Z" id="Path" fill="#787878"></path>
                <path d="M334.78,345.68 L296.12,345.68 C295.567715,345.68 295.12,345.232285 295.12,344.68 C295.12,344.127715 295.567715,343.68 296.12,343.68 L334.78,343.68 C335.332285,343.68 335.78,344.127715 335.78,344.68 C335.78,345.232285 335.332285,345.68 334.78,345.68 L334.78,345.68 Z" id="Path" fill="#787878"></path>
                <path d="M331.06,341.05 L299.84,341.05 C299.287715,341.05 298.84,340.602285 298.84,340.05 C298.84,339.497715 299.287715,339.05 299.84,339.05 L331.06,339.05 C331.612285,339.05 332.06,339.497715 332.06,340.05 C332.06,340.602285 331.612285,341.05 331.06,341.05 L331.06,341.05 Z" id="Path" fill="#787878"></path>
                <path d="M337.26,283.61 L293.65,283.61 C293.097715,283.61 292.65,283.162285 292.65,282.61 C292.65,282.057715 293.097715,281.61 293.65,281.61 L337.26,281.61 C337.812285,281.61 338.26,282.057715 338.26,282.61 C338.26,283.162285 337.812285,283.61 337.26,283.61 L337.26,283.61 Z" id="Path" fill="#787878"></path>
                <path d="M337.26,288.07 L293.65,288.07 C293.097715,288.07 292.65,287.622285 292.65,287.07 C292.65,286.517715 293.097715,286.07 293.65,286.07 L337.26,286.07 C337.812285,286.07 338.26,286.517715 338.26,287.07 C338.26,287.622285 337.812285,288.07 337.26,288.07 L337.26,288.07 Z" id="Path" fill="#787878"></path>
                <path d="M338,292.5 L292.9,292.5 C292.347715,292.5 291.9,292.052285 291.9,291.5 C291.9,290.947715 292.347715,290.5 292.9,290.5 L338,290.5 C338.552285,290.5 339,290.947715 339,291.5 C339,292.052285 338.552285,292.5 338,292.5 Z" id="Path" fill="#787878"></path>
                <path d="M337.01,296.99 L293.89,296.99 C293.337715,296.99 292.89,296.542285 292.89,295.99 C292.89,295.437715 293.337715,294.99 293.89,294.99 L337.01,294.99 C337.562285,294.99 338.01,295.437715 338.01,295.99 C338.01,296.542285 337.562285,296.99 337.01,296.99 L337.01,296.99 Z" id="Path" fill="#787878"></path>
                <path d="M335.18,301.5 L295.73,301.5 C295.177715,301.5 294.73,301.052285 294.73,300.5 C294.73,299.947715 295.177715,299.5 295.73,299.5 L335.19,299.5 C335.742285,299.5 336.19,299.947715 336.19,300.5 C336.19,301.052285 335.742285,301.5 335.19,301.5 L335.18,301.5 Z" id="Path" fill="#787878"></path>
                <path d="M67.25,251.16 C67.42,251.64 67.82,252.4 68.25,252.4 C68.9,252.4 69.42,251.46 69.42,250.3 C69.42,249.14 68.9,248.2 68.25,248.2 C67.86,248.2 67.48,248.87 67.25,249.28 L62.89,249.15 C62.7561778,246.401478 62.0511996,243.710981 60.82,241.25 L66.56,237.71 C66.98,238.08 67.79,238.58 68.19,238.35 C68.81,237.99 68.8,236.81 68.19,235.7 C67.58,234.59 66.53,233.99 65.91,234.35 C65.55,234.56 65.55,235.41 65.61,235.89 L59.61,239.11 C58.0865245,236.816513 56.1091772,234.859586 53.8,233.36 L55.8,229.58 C56.3,229.68 57.16,229.71 57.37,229.34 C57.7,228.78 57.15,227.85 56.14,227.27 C55.13,226.69 54.06,226.68 53.73,227.27 C53.54,227.6 53.93,228.27 54.19,228.62 L51.91,232.33 C49.4584489,231.082356 46.7758831,230.353842 44.03,230.19 L43.83,223.44 C44.36,223.26 45.2,222.81 45.2,222.34 C45.2,221.63 44.2,221.05 42.89,221.05 C41.58,221.05 40.58,221.63 40.58,222.34 C40.58,222.77 41.31,223.19 41.76,223.34 L41.56,230.15 C38.8304459,230.323736 36.1655333,231.055481 33.73,232.3 L31.47,228.64 C31.81,228.25 32.26,227.52 32.05,227.16 C31.73,226.59 30.65,226.61 29.64,227.16 C28.63,227.71 28.09,228.66 28.41,229.23 C28.6,229.56 29.41,229.56 29.82,229.5 L31.88,233.33 C29.5708228,234.829586 27.5934755,236.786513 26.07,239.08 L20.14,235.89 C20.25,235.34 20.28,234.39 19.88,234.16 C19.26,233.8 18.24,234.41 17.6,235.51 C16.96,236.61 16.95,237.8 17.6,238.16 C17.96,238.37 18.7,237.94 19.09,237.65 L24.88,241.22 C23.6488004,243.680981 22.9438222,246.371478 22.81,249.12 L18.5,249.25 C18.33,248.77 17.93,248.01 17.5,248.01 C16.85,248.01 16.33,248.95 16.33,250.11 C16.33,251.27 16.85,252.21 17.5,252.21 C17.89,252.21 18.27,251.54 18.45,251.13 L22.81,251.26 C22.9438222,254.008522 23.6488004,256.699019 24.88,259.16 L19.14,262.7 C18.71,262.33 17.91,261.83 17.51,262.06 C16.89,262.42 16.9,263.6 17.51,264.71 C18.12,265.82 19.17,266.42 19.79,266.06 C20.15,265.85 20.15,265 20.09,264.52 L26.09,261.3 C27.6134755,263.593487 29.5908228,265.550414 31.9,267.05 L29.9,270.83 C29.4,270.73 28.54,270.7 28.33,271.07 C28,271.63 28.55,272.56 29.56,273.14 C30.57,273.72 31.64,273.73 31.97,273.14 C32.16,272.81 31.77,272.14 31.51,271.79 L33.73,268.14 C36.1815511,269.387644 38.8641169,270.116158 41.61,270.28 L41.81,277.03 C41.28,277.21 40.44,277.66 40.44,278.12 C40.44,278.84 41.44,279.42 42.75,279.42 C44.06,279.42 45.06,278.84 45.06,278.12 C45.06,277.7 44.33,277.28 43.88,277.12 L44.08,270.31 C46.8258831,270.146158 49.5084489,269.417644 51.96,268.17 L54.22,271.83 C53.88,272.22 53.43,272.95 53.64,273.31 C53.96,273.88 55.04,273.86 56.05,273.31 C57.06,272.76 57.6,271.81 57.28,271.24 C57.08,270.91 56.28,270.91 55.87,270.97 L53.81,267.14 C56.1191772,265.640414 58.0965245,263.683487 59.62,261.39 L65.55,264.58 C65.44,265.13 65.41,266.08 65.81,266.31 C66.43,266.67 67.45,266.06 68.09,264.96 C68.73,263.86 68.74,262.67 68.09,262.31 C67.72,262.1 66.99,262.53 66.6,262.82 L60.81,259.25 C62.0411996,256.789019 62.7461778,254.098522 62.88,251.35 L67.25,251.16 Z" id="Path" stroke="#787878" fill="#FFFFFF" stroke-linecap="round" stroke-linejoin="round"></path>
                <path d="M44.44,234.86 C44.4685242,235.703022 43.982671,236.479035 43.2118617,236.821602 C42.4410525,237.16417 41.5394762,237.004768 40.93286,236.418665 C40.3262437,235.832562 40.1359321,234.937001 40.4517908,234.154867 C40.7676496,233.372734 41.5264958,232.860482 42.37,232.86 C42.9124546,232.841002 43.4393335,233.043299 43.8296853,233.420451 C44.2200372,233.797602 44.4403326,234.317213 44.44,234.86 Z" id="Path" stroke="#787878" fill="#FFFFFF" stroke-linecap="round" stroke-linejoin="round"></path>
                <path d="M31.93,250.81 C31.9626316,251.657801 31.4770671,252.440447 30.7029787,252.787748 C29.9288902,253.135049 29.0214481,252.977385 28.4098729,252.389332 C27.7982976,251.801279 27.6051829,250.900715 27.9218719,250.113607 C28.238561,249.326499 29.0015718,248.810628 29.85,248.81 C30.3941536,248.788216 30.92366,248.989273 31.3162181,249.366733 C31.7087762,249.744193 31.9304359,250.265411 31.93,250.81 Z" id="Path" stroke="#787878" fill="#FFFFFF" stroke-linecap="round" stroke-linejoin="round"></path>
                <path d="M41.2,245.68 C41.2326598,246.52871 40.746023,247.312022 39.9706849,247.658759 C39.1953468,248.005496 38.2870779,247.845996 37.676266,247.25584 C37.0654542,246.665683 36.8748155,245.763436 37.1946851,244.976633 C37.5145547,244.18983 38.2806687,243.676545 39.13,243.68 C39.6724546,243.661002 40.1993335,243.863299 40.5896853,244.240451 C40.9800372,244.617602 41.2003326,245.137213 41.2,245.68 Z" id="Path" stroke="#787878" fill="#FFFFFF" stroke-linecap="round" stroke-linejoin="round"></path>
                <path d="M36.36,262.85 C36.3885242,263.693022 35.902671,264.469035 35.1318617,264.811602 C34.3610525,265.15417 33.4594762,264.994768 32.85286,264.408665 C32.2462437,263.822562 32.0559321,262.927001 32.3717908,262.144867 C32.6876496,261.362734 33.4464958,260.850482 34.29,260.85 C34.8324546,260.831002 35.3593335,261.033299 35.7496853,261.410451 C36.1400372,261.787602 36.3603326,262.307213 36.36,262.85 Z" id="Path" stroke="#787878" fill="#FFFFFF" stroke-linecap="round" stroke-linejoin="round"></path>
                <path d="M58.95,254.56 C58.9785242,255.403022 58.492671,256.179035 57.7218617,256.521602 C56.9510525,256.86417 56.0494762,256.704768 55.44286,256.118665 C54.8362437,255.532562 54.6459321,254.637001 54.9617908,253.854867 C55.2776496,253.072734 56.0364958,252.560482 56.88,252.56 C57.4224546,252.541002 57.9493335,252.743299 58.3396853,253.120451 C58.7300372,253.497602 58.9503326,254.017213 58.95,254.56 L58.95,254.56 Z" id="Path" stroke="#787878" fill="#FFFFFF" stroke-linecap="round" stroke-linejoin="round"></path>
                <path d="M44.13,257.26 C44.1585242,258.103022 43.672671,258.879035 42.9018617,259.221602 C42.1310525,259.56417 41.2294762,259.404768 40.62286,258.818665 C40.0162437,258.232562 39.8259321,257.337001 40.1417908,256.554867 C40.4576496,255.772734 41.2164958,255.260482 42.06,255.26 C42.6024546,255.241002 43.1293335,255.443299 43.5196853,255.820451 C43.9100372,256.197602 44.1303326,256.717213 44.13,257.26 Z" id="Path" stroke="#787878" fill="#FFFFFF" stroke-linecap="round" stroke-linejoin="round"></path>
                <path d="M50.84,249.36 C50.8726598,250.20871 50.386023,250.992022 49.6106849,251.338759 C48.8353468,251.685496 47.9270779,251.525996 47.316266,250.93584 C46.7054542,250.345683 46.5148155,249.443436 46.8346851,248.656633 C47.1545547,247.86983 47.9206687,247.356545 48.77,247.36 C49.3124546,247.341002 49.8393335,247.543299 50.2296853,247.920451 C50.6200372,248.297602 50.8403326,248.817213 50.84,249.36 Z" id="Path" stroke="#787878" fill="#FFFFFF" stroke-linecap="round" stroke-linejoin="round"></path>
                <path d="M55.84,240.17 C55.8685242,241.013022 55.382671,241.789035 54.6118617,242.131602 C53.8410525,242.47417 52.9394762,242.314768 52.33286,241.728665 C51.7262437,241.142562 51.5359321,240.247001 51.8517908,239.464867 C52.1676496,238.682734 52.9264958,238.170482 53.77,238.17 C54.3124546,238.151002 54.8393335,238.353299 55.2296853,238.730451 C55.6200372,239.107602 55.8403326,239.627213 55.84,240.17 Z" id="Path" stroke="#787878" fill="#FFFFFF" stroke-linecap="round" stroke-linejoin="round"></path>
                <path d="M51.06,263.83 C51.0885242,264.673022 50.602671,265.449035 49.8318617,265.791602 C49.0610525,266.13417 48.1594762,265.974768 47.55286,265.388665 C46.9462437,264.802562 46.7559321,263.907001 47.0717908,263.124867 C47.3876496,262.342734 48.1464958,261.830482 48.99,261.83 C49.5324546,261.811002 50.0593335,262.013299 50.4496853,262.390451 C50.8400372,262.767602 51.0603326,263.287213 51.06,263.83 Z" id="Path" stroke="#787878" fill="#FFFFFF" stroke-linecap="round" stroke-linejoin="round"></path>
                <path d="M34.1,238.38 C34.1326316,239.227801 33.6470671,240.010447 32.8729787,240.357748 C32.0988902,240.705049 31.1914481,240.547385 30.5798729,239.959332 C29.9682976,239.371279 29.7751829,238.470715 30.0918719,237.683607 C30.408561,236.896499 31.1715718,236.380628 32.02,236.38 C32.5641536,236.358216 33.09366,236.559273 33.4862181,236.936733 C33.8787762,237.314193 34.1004359,237.835411 34.1,238.38 Z" id="Path" stroke="#787878" fill="#FFFFFF" stroke-linecap="round" stroke-linejoin="round"></path>
                <path d="M200.37,21.2 C200.48,21.53 200.75,22.04 201.03,22.04 C201.47,22.04 201.82,21.41 201.82,20.63 C201.82,19.85 201.47,19.22 201.03,19.22 C200.78,19.22 200.52,19.67 200.4,19.94 L197.47,19.85 C197.374672,18.0067602 196.901552,16.2027775 196.08,14.55 L199.93,12.17 C200.22,12.41 200.76,12.75 201.03,12.59 C201.3,12.43 201.44,11.59 201.03,10.82 C200.62,10.05 199.91,9.67 199.5,9.91 C199.25,10.05 199.25,10.62 199.29,10.91 L195.29,13.08 C194.2611,11.5394255 192.931073,10.2230045 191.38,9.21 L192.73,6.7 C193.07,6.77 193.65,6.79 193.79,6.54 C193.93,6.29 193.64,5.54 192.96,5.15 C192.28,4.76 191.57,4.75 191.35,5.15 C191.22,5.37 191.48,5.82 191.66,6.06 L190.11,8.5 C188.46046,7.66244552 186.656581,7.17233482 184.81,7.06 L184.73,2.56 C185.09,2.44 185.65,2.14 185.65,1.82 C185.65,1.34 184.96,0.95 184.1,0.95 C183.24,0.95 182.55,1.34 182.55,1.82 C182.55,2.11 183.04,2.39 183.34,2.52 L183.21,7.09 C181.363419,7.20233482 179.55954,7.69244552 177.91,8.53 L176.4,6.07 C176.62,5.81 176.93,5.32 176.79,5.07 C176.65,4.82 175.84,4.7 175.17,5.07 C174.5,5.44 174.17,6.07 174.34,6.46 C174.47,6.68 174.99,6.68 175.28,6.64 L176.67,9.21 C175.119718,10.2205782 173.792519,11.5375679 172.77,13.08 L168.77,10.93 C168.85,10.56 168.87,9.93 168.6,9.77 C168.18,9.53 167.5,9.94 167.07,10.68 C166.64,11.42 166.63,12.22 167.07,12.46 C167.31,12.6 167.81,12.31 168.07,12.12 L171.96,14.52 C171.130642,16.1703889 170.653866,17.9753302 170.56,19.82 L167.67,19.91 C167.56,19.58 167.29,19.07 167,19.07 C166.71,19.07 166.21,19.71 166.21,20.48 C166.21,21.25 166.57,21.9 167,21.9 C167.26,21.9 167.52,21.45 167.63,21.17 L170.56,21.26 C170.655092,23.1076683 171.131766,24.9156272 171.96,26.57 L168.1,28.95 C167.82,28.7 167.28,28.36 167,28.52 C166.72,28.68 166.6,29.52 167,30.3 C167.4,31.08 168.11,31.45 168.53,31.21 C168.77,31.06 168.77,30.49 168.73,30.21 L172.73,28.04 C173.752519,29.5824321 175.079718,30.8994218 176.63,31.91 L175.26,34.45 C174.92,34.38 174.35,34.36 174.2,34.61 C174.05,34.86 174.36,35.61 175.03,36 C175.7,36.39 176.43,36.4 176.65,36 C176.78,35.78 176.52,35.33 176.34,35.09 L177.87,32.6 C179.51954,33.4375545 181.323419,33.9276652 183.17,34.04 L183.3,38.57 C182.95,38.7 182.38,39 182.38,39.31 C182.38,39.79 183.08,40.18 183.94,40.18 C184.8,40.18 185.49,39.79 185.49,39.31 C185.49,39.03 184.99,38.74 184.69,38.61 L184.82,34.04 C186.666581,33.9276652 188.47046,33.4375545 190.12,32.6 L191.64,35.06 C191.41,35.32 191.11,35.81 191.25,36.06 C191.39,36.31 192.19,36.43 192.87,36.06 C193.55,35.69 193.87,35.06 193.69,34.67 C193.51,34.28 193.04,34.44 192.75,34.48 L191.36,31.91 C192.911073,30.8969955 194.2411,29.5805745 195.27,28.04 L199.27,30.19 C199.2,30.56 199.17,31.19 199.45,31.35 C199.73,31.51 200.55,31.19 200.97,30.44 C201.39,29.69 201.41,28.9 200.97,28.66 C200.72,28.52 200.23,28.81 199.97,29 L196.08,26.61 C196.900471,24.9532635 197.373494,23.146249 197.47,21.3 L200.37,21.2 Z" id="Path" stroke="#787878" fill="#FFFFFF" stroke-linecap="round" stroke-linejoin="round"></path>
                <path d="M185.04,10.25 C185.064498,10.8170217 184.741808,11.3419858 184.224821,11.5761621 C183.707835,11.8103384 183.100404,11.7066855 182.690332,11.3143146 C182.28026,10.9219438 182.149923,10.3196744 182.361074,9.79286429 C182.572225,9.26605421 183.08245,8.92052898 183.65,8.92 C184.011477,8.90924747 184.362156,9.04397445 184.623449,9.29398904 C184.884743,9.54400364 185.034802,9.88840001 185.04,10.25 Z" id="Path" stroke="#787878" fill="#FFFFFF" stroke-linecap="round" stroke-linejoin="round"></path>
                <path d="M176.63,20.97 C176.654498,21.5370217 176.331808,22.0619858 175.814821,22.2961621 C175.297835,22.5303384 174.690404,22.4266855 174.280332,22.0343146 C173.87026,21.6419438 173.739923,21.0396744 173.951074,20.5128643 C174.162225,19.9860542 174.67245,19.640529 175.24,19.64 C175.601477,19.6292475 175.952156,19.7639744 176.213449,20.013989 C176.474743,20.2640036 176.624802,20.6084 176.63,20.97 L176.63,20.97 Z" id="Path" stroke="#787878" fill="#FFFFFF" stroke-linecap="round" stroke-linejoin="round"></path>
                <path d="M182.86,17.5 C182.888625,18.0676993 182.568711,18.5956245 182.052226,18.8329965 C181.535742,19.0703684 180.926771,18.9693505 180.514592,18.5779291 C180.102414,18.1865077 179.970092,17.5835643 180.180483,17.0555137 C180.390875,16.5274631 180.90158,16.1807212 181.47,16.18 C182.217374,16.1631918 182.838202,16.7527545 182.86,17.5 Z" id="Path" stroke="#787878" fill="#FFFFFF" stroke-linecap="round" stroke-linejoin="round"></path>
                <path d="M179.61,29.05 C179.638625,29.6176993 179.318711,30.1456245 178.802226,30.3829965 C178.285742,30.6203684 177.676771,30.5193505 177.264592,30.1279291 C176.852414,29.7365077 176.720092,29.1335643 176.930483,28.6055137 C177.140875,28.0774631 177.65158,27.7307212 178.22,27.73 C178.967374,27.7131918 179.588202,28.3027545 179.61,29.05 L179.61,29.05 Z" id="Path" stroke="#787878" fill="#FFFFFF" stroke-linecap="round" stroke-linejoin="round"></path>
                <path d="M194.79,23.5 C194.814498,24.0670217 194.491808,24.5919858 193.974821,24.8261621 C193.457835,25.0603384 192.850404,24.9566855 192.440332,24.5643146 C192.03026,24.1719438 191.899923,23.5696744 192.111074,23.0428643 C192.322225,22.5160542 192.83245,22.170529 193.4,22.17 C193.761477,22.1592475 194.112156,22.2939744 194.373449,22.543989 C194.634743,22.7940036 194.784802,23.1384 194.79,23.5 L194.79,23.5 Z" id="Path" stroke="#787878" fill="#FFFFFF" stroke-linecap="round" stroke-linejoin="round"></path>
                <path d="M184.83,25.3 C184.854498,25.8670217 184.531808,26.3919858 184.014821,26.6261621 C183.497835,26.8603384 182.890404,26.7566855 182.480332,26.3643146 C182.07026,25.9719438 181.939923,25.3696744 182.151074,24.8428643 C182.362225,24.3160542 182.87245,23.970529 183.44,23.97 C183.801477,23.9592475 184.152156,24.0939744 184.413449,24.343989 C184.674743,24.5940036 184.824802,24.9384 184.83,25.3 L184.83,25.3 Z" id="Path" stroke="#787878" fill="#FFFFFF" stroke-linecap="round" stroke-linejoin="round"></path>
                <path d="M189.34,20 C189.368659,20.5726594 189.045233,21.104908 188.52375,21.3432688 C188.002268,21.5816297 187.388154,21.4779144 186.973873,21.0815162 C186.559592,20.6851181 186.428898,20.0761749 186.644031,19.5446887 C186.859165,19.0132024 187.376634,18.6666211 187.95,18.67 C188.310719,18.6619551 188.659852,18.7975805 188.920547,19.0470225 C189.181242,19.2964645 189.332131,19.6392767 189.34,20 L189.34,20 Z" id="Path" stroke="#787878" fill="#FFFFFF" stroke-linecap="round" stroke-linejoin="round"></path>
                <path d="M192.73,13.82 C192.758339,14.3849446 192.441502,14.9107157 191.928765,15.1496009 C191.416028,15.3884862 190.809669,15.2928338 190.395369,14.9077095 C189.981068,14.5225853 189.841469,13.9248121 190.042343,13.3960254 C190.243216,12.8672387 190.744493,12.5129187 191.31,12.5 C191.674131,12.4837722 192.029537,12.6143886 192.296501,12.8625521 C192.563465,13.1107157 192.719641,13.4556547 192.73,13.82 L192.73,13.82 Z" id="Path" stroke="#787878" fill="#FFFFFF" stroke-linecap="round" stroke-linejoin="round"></path>
                <path d="M189.49,29.72 C189.518659,30.2926594 189.195233,30.824908 188.67375,31.0632688 C188.152268,31.3016297 187.538154,31.1979144 187.123873,30.8015162 C186.709592,30.4051181 186.578898,29.7961749 186.794031,29.2646887 C187.009165,28.7332024 187.526634,28.3866211 188.1,28.39 C188.460719,28.3819551 188.809852,28.5175805 189.070547,28.7670225 C189.331242,29.0164645 189.482131,29.3592767 189.49,29.72 Z" id="Path" stroke="#787878" fill="#FFFFFF" stroke-linecap="round" stroke-linejoin="round"></path>
                <path d="M178.09,12.62 C178.114494,13.1897343 177.788517,13.7166307 177.267762,13.9490343 C176.747007,14.1814378 176.137133,14.0721947 175.729426,13.6734814 C175.321719,13.2747682 175.198902,12.6674819 175.419634,12.1416734 C175.640366,11.615865 176.159861,11.2782185 176.73,11.29 C177.471733,11.2844244 178.079032,11.8783268 178.09,12.62 Z" id="Path" stroke="#787878" fill="#FFFFFF" stroke-linecap="round" stroke-linejoin="round"></path>
                <path d="M398.06,243.26 C398.17,243.59 398.44,244.1 398.73,244.1 C399.02,244.1 399.52,243.47 399.52,242.69 C399.52,241.91 399.17,241.28 398.73,241.28 C398.47,241.28 398.21,241.73 398.1,242 L395.17,241.91 C395.074908,240.062332 394.598234,238.254373 393.77,236.6 L397.63,234.23 C397.92,234.47 398.46,234.81 398.73,234.65 C399,234.49 399.13,233.65 398.73,232.88 C398.33,232.11 397.62,231.73 397.2,231.97 C396.96,232.11 396.96,232.68 397,232.97 L393,235.14 C391.977481,233.597568 390.650282,232.280578 389.1,231.27 L390.47,228.73 C390.81,228.8 391.38,228.82 391.53,228.57 C391.68,228.32 391.38,227.57 390.7,227.18 C390.02,226.79 389.3,226.78 389.08,227.18 C388.95,227.4 389.21,227.85 389.39,228.09 L387.86,230.58 C386.21046,229.742446 384.406581,229.252335 382.56,229.14 L382.43,224.61 C382.78,224.48 383.35,224.19 383.35,223.87 C383.35,223.39 382.65,223 381.8,223 C380.95,223 380.24,223.39 380.24,223.87 C380.24,224.16 380.74,224.44 381.04,224.57 L380.91,229.14 C379.063419,229.252335 377.25954,229.742446 375.61,230.58 L374.09,228.12 C374.32,227.86 374.62,227.37 374.48,227.12 C374.34,226.87 373.54,226.76 372.86,227.12 C372.18,227.48 371.86,228.12 372.04,228.51 C372.17,228.73 372.69,228.73 372.98,228.69 L374.37,231.26 C372.818927,232.273004 371.4889,233.589425 370.46,235.13 L366.46,232.98 C366.53,232.61 366.56,231.98 366.28,231.82 C366,231.66 365.18,231.99 364.76,232.73 C364.34,233.47 364.32,234.27 364.76,234.51 C365.01,234.65 365.5,234.36 365.76,234.17 L369.65,236.57 C368.828448,238.222777 368.355328,240.02676 368.26,241.87 L365.37,241.96 C365.25,241.63 364.98,241.12 364.7,241.12 C364.26,241.12 363.91,241.75 363.91,242.53 C363.91,243.31 364.26,243.94 364.7,243.94 C364.96,243.94 365.22,243.49 365.33,243.22 L368.26,243.31 C368.356506,245.156249 368.829529,246.963264 369.65,248.62 L365.73,251.03 C365.44,250.79 364.9,250.45 364.63,250.61 C364.21,250.85 364.23,251.61 364.63,252.38 C365.03,253.15 365.75,253.53 366.16,253.29 C366.41,253.15 366.41,252.58 366.37,252.29 L370.37,250.12 C371.3989,251.660575 372.728927,252.976996 374.28,253.99 L372.95,256.5 C372.61,256.43 372.03,256.41 371.89,256.66 C371.75,256.91 372.04,257.66 372.72,258.05 C373.4,258.44 374.12,258.45 374.33,258.05 C374.46,257.83 374.2,257.38 374.02,257.14 L375.56,254.65 C377.20954,255.487554 379.013419,255.977665 380.86,256.09 L380.99,260.62 C380.63,260.75 380.07,261.04 380.07,261.36 C380.07,261.84 380.76,262.23 381.62,262.23 C382.48,262.23 383.17,261.84 383.17,261.36 C383.17,261.07 382.68,260.79 382.38,260.66 L382.51,256.09 C384.356581,255.977665 386.16046,255.487554 387.81,254.65 L389.33,257.11 C389.1,257.37 388.79,257.86 388.94,258.11 C389.09,258.36 389.88,258.47 390.55,258.11 C391.22,257.75 391.6,257.11 391.38,256.72 C391.25,256.5 390.73,256.5 390.44,256.54 L389.05,253.97 C390.600282,252.959422 391.927481,251.642432 392.95,250.1 L396.95,252.25 C396.87,252.62 396.85,253.25 397.12,253.41 C397.54,253.65 398.22,253.24 398.65,252.5 C399.08,251.76 399.09,250.96 398.65,250.72 C398.41,250.58 397.91,250.87 397.65,251.06 L393.76,248.66 C394.589358,247.009611 395.066134,245.20467 395.16,243.36 L398.06,243.26 Z" id="Path" stroke="#787878" fill="#FFFFFF" stroke-linecap="round" stroke-linejoin="round"></path>
                <path d="M382.73,232.31 C382.758623,232.88175 382.436267,233.413325 381.91604,233.652243 C381.395814,233.891162 380.782539,233.789284 380.367502,233.394998 C379.952464,233.000712 379.819291,232.393465 380.031235,231.861678 C380.243178,231.329891 380.757534,230.980716 381.33,230.98 C381.692427,230.969251 382.044142,231.103672 382.307017,231.353403 C382.569892,231.603134 382.722161,231.947498 382.73,232.31 Z" id="Path" stroke="#787878" fill="#FFFFFF" stroke-linecap="round" stroke-linejoin="round"></path>
                <path d="M374.33,243.03 C374.358659,243.602659 374.035233,244.134908 373.51375,244.373269 C372.992268,244.61163 372.378154,244.507914 371.963873,244.111516 C371.549592,243.715118 371.418898,243.106175 371.634031,242.574689 C371.849165,242.043202 372.366634,241.696621 372.94,241.7 C373.300719,241.691955 373.649852,241.827581 373.910547,242.077023 C374.171242,242.326465 374.322131,242.669277 374.33,243.03 Z" id="Path" stroke="#787878" fill="#FFFFFF" stroke-linecap="round" stroke-linejoin="round"></path>
                <path d="M380.56,239.58 C380.592805,240.153303 380.272191,240.688504 379.751233,240.930074 C379.230276,241.171643 378.614628,241.07059 378.198229,240.67516 C377.78183,240.279731 377.649128,239.670121 377.86348,239.137387 C378.077832,238.604653 378.595768,238.256836 379.17,238.26 C379.915265,238.248626 380.532884,238.835142 380.56,239.58 L380.56,239.58 Z" id="Path" stroke="#787878" fill="#FFFFFF" stroke-linecap="round" stroke-linejoin="round"></path>
                <path d="M377.31,251.11 C377.338625,251.677699 377.018711,252.205625 376.502226,252.442996 C375.985742,252.680368 375.376771,252.579351 374.964592,252.187929 C374.552414,251.796508 374.420092,251.193564 374.630483,250.665514 C374.840875,250.137463 375.35158,249.790721 375.92,249.79 C376.667374,249.773192 377.288202,250.362754 377.31,251.11 Z" id="Path" stroke="#787878" fill="#FFFFFF" stroke-linecap="round" stroke-linejoin="round"></path>
                <path d="M392.49,245.55 C392.518623,246.12175 392.196267,246.653325 391.67604,246.892243 C391.155814,247.131162 390.542539,247.029284 390.127502,246.634998 C389.712464,246.240712 389.579291,245.633465 389.791235,245.101678 C390.003178,244.569891 390.517534,244.220716 391.09,244.22 C391.452427,244.209251 391.804142,244.343672 392.067017,244.593403 C392.329892,244.843134 392.482161,245.187498 392.49,245.55 Z" id="Path" stroke="#787878" fill="#FFFFFF" stroke-linecap="round" stroke-linejoin="round"></path>
                <path d="M382.53,247.36 C382.558659,247.932659 382.235233,248.464908 381.71375,248.703269 C381.192268,248.94163 380.578154,248.837914 380.163873,248.441516 C379.749592,248.045118 379.618898,247.436175 379.834031,246.904689 C380.049165,246.373202 380.566634,246.026621 381.14,246.03 C381.500719,246.021955 381.849852,246.157581 382.110547,246.407023 C382.371242,246.656465 382.522131,246.999277 382.53,247.36 Z" id="Path" stroke="#787878" fill="#FFFFFF" stroke-linecap="round" stroke-linejoin="round"></path>
                <path d="M387.03,242.06 C387.054498,242.627022 386.731808,243.151986 386.214821,243.386162 C385.697835,243.620338 385.090404,243.516685 384.680332,243.124315 C384.27026,242.731944 384.139923,242.129674 384.351074,241.602864 C384.562225,241.076054 385.07245,240.730529 385.64,240.73 C386.001477,240.719247 386.352156,240.853974 386.613449,241.103989 C386.874743,241.354004 387.024802,241.6984 387.03,242.06 Z" id="Path" stroke="#787878" fill="#FFFFFF" stroke-linecap="round" stroke-linejoin="round"></path>
                <path d="M390.4,235.88 C390.428623,236.45175 390.106267,236.983325 389.58604,237.222243 C389.065814,237.461162 388.452539,237.359284 388.037502,236.964998 C387.622464,236.570712 387.489291,235.963465 387.701235,235.431678 C387.913178,234.899891 388.427534,234.550716 389,234.55 C389.752896,234.533194 390.3782,235.127232 390.4,235.88 L390.4,235.88 Z" id="Path" stroke="#787878" fill="#FFFFFF" stroke-linecap="round" stroke-linejoin="round"></path>
                <path d="M387.18,251.78 C387.204498,252.347022 386.881808,252.871986 386.364821,253.106162 C385.847835,253.340338 385.240404,253.236685 384.830332,252.844315 C384.42026,252.451944 384.289923,251.849674 384.501074,251.322864 C384.712225,250.796054 385.22245,250.450529 385.79,250.45 C386.151477,250.439247 386.502156,250.573974 386.763449,250.823989 C387.024743,251.074004 387.174802,251.4184 387.18,251.78 Z" id="Path" stroke="#787878" fill="#FFFFFF" stroke-linecap="round" stroke-linejoin="round"></path>
                <path d="M375.79,234.68 C375.818623,235.25175 375.496267,235.783325 374.97604,236.022243 C374.455814,236.261162 373.842539,236.159284 373.427502,235.764998 C373.012464,235.370712 372.879291,234.763465 373.091235,234.231678 C373.303178,233.699891 373.817534,233.350716 374.39,233.35 C374.752427,233.339251 375.104142,233.473672 375.367017,233.723403 C375.629892,233.973134 375.782161,234.317498 375.79,234.68 L375.79,234.68 Z" id="Path" stroke="#787878" fill="#FFFFFF" stroke-linecap="round" stroke-linejoin="round"></path>
                <path d="M30.63,196.93 C30.0777153,196.93 29.63,196.482285 29.63,195.93 L29.63,189.41 C29.63,188.857715 30.0777153,188.41 30.63,188.41 C31.1822847,188.41 31.63,188.857715 31.63,189.41 L31.63,195.93 C31.63,196.482285 31.1822847,196.93 30.63,196.93 Z" id="Path" fill="#787878"></path>
                <path d="M33.89,193.67 L27.37,193.67 C26.8177153,193.67 26.37,193.222285 26.37,192.67 C26.37,192.117715 26.8177153,191.67 27.37,191.67 L33.89,191.67 C34.4422847,191.67 34.89,192.117715 34.89,192.67 C34.89,193.222285 34.4422847,193.67 33.89,193.67 Z" id="Path" fill="#787878"></path>
                <path d="M8.03,68.61 C7.34353052,68.61 6.78549176,68.0564475 6.78,67.37 L6.78,59.26 C6.83781808,58.6155151 7.37792677,58.1216915 8.025,58.1216915 C8.67207323,58.1216915 9.21218192,58.6155151 9.27,59.26 L9.27,67.37 C9.26456096,68.0525675 8.71256747,68.604561 8.03,68.61 Z" id="Path" fill="#787878"></path>
                <path d="M12.08,64.56 L3.97,64.56 C3.32551506,64.5021819 2.83169154,63.9620732 2.83169154,63.315 C2.83169154,62.6679268 3.32551506,62.1278181 3.97,62.07 L12.08,62.07 C12.7244849,62.1278181 13.2183085,62.6679268 13.2183085,63.315 C13.2183085,63.9620732 12.7244849,64.5021819 12.08,64.56 L12.08,64.56 Z" id="Path" fill="#787878"></path>
                <path d="M367.49,31.85 C366.937715,31.85 366.49,31.4022847 366.49,30.85 L366.49,24.33 C366.49,23.7777153 366.937715,23.33 367.49,23.33 C368.042285,23.33 368.49,23.7777153 368.49,24.33 L368.49,30.85 C368.49,31.4022847 368.042285,31.85 367.49,31.85 Z" id="Path" fill="#787878"></path>
                <path d="M370.73,28.59 L364.23,28.59 C363.677715,28.59 363.23,28.1422847 363.23,27.59 C363.23,27.0377153 363.677715,26.59 364.23,26.59 L370.73,26.59 C371.282285,26.59 371.73,27.0377153 371.73,27.59 C371.73,28.1422847 371.282285,28.59 370.73,28.59 Z" id="Path" fill="#787878"></path>
                <path d="M140.83,8.5 C140.277715,8.5 139.83,8.05228475 139.83,7.5 L139.83,1 C139.83,0.44771525 140.277715,0 140.83,0 C141.382285,0 141.83,0.44771525 141.83,1 L141.83,7.5 C141.83,8.05228475 141.382285,8.5 140.83,8.5 Z" id="Path" fill="#787878"></path>
                <path d="M144.09,5.26 L137.57,5.26 C137.017715,5.26 136.57,4.81228475 136.57,4.26 C136.57,3.70771525 137.017715,3.26 137.57,3.26 L144.09,3.26 C144.642285,3.26 145.09,3.70771525 145.09,4.26 C145.09,4.81228475 144.642285,5.26 144.09,5.26 Z" id="Path" fill="#787878"></path>
                <path d="M4.26,165.23 C3.70771525,165.23 3.26,164.782285 3.26,164.23 L3.26,157.71 C3.26,157.157715 3.70771525,156.71 4.26,156.71 C4.81228475,156.71 5.26,157.157715 5.26,157.71 L5.26,164.23 C5.26,164.782285 4.81228475,165.23 4.26,165.23 Z" id="Path" fill="#787878"></path>
                <path d="M7.52,161.97 L1,161.97 C0.44771525,161.97 2.13162821e-14,161.522285 2.13162821e-14,160.97 C2.13162821e-14,160.417715 0.44771525,159.97 1,159.97 L7.52,159.97 C8.07228475,159.97 8.52,160.417715 8.52,160.97 C8.52,161.522285 8.07228475,161.97 7.52,161.97 L7.52,161.97 Z" id="Path" fill="#787878"></path>
                <path d="M85.57,333.11 C85.0177153,333.11 84.57,332.662285 84.57,332.11 L84.57,325.59 C84.57,325.037715 85.0177153,324.59 85.57,324.59 C86.1222847,324.59 86.57,325.037715 86.57,325.59 L86.57,332.11 C86.57,332.662285 86.1222847,333.11 85.57,333.11 Z" id="Path" fill="#787878"></path>
                <path d="M88.83,329.85 L82.3,329.85 C81.7477153,329.85 81.3,329.402285 81.3,328.85 C81.3,328.297715 81.7477153,327.85 82.3,327.85 L88.83,327.85 C89.3822847,327.85 89.83,328.297715 89.83,328.85 C89.83,329.402285 89.3822847,329.85 88.83,329.85 Z" id="Path" fill="#787878"></path>
                <path d="M350.15,322.63 C349.597715,322.63 349.15,322.182285 349.15,321.63 L349.15,315.11 C349.15,314.557715 349.597715,314.11 350.15,314.11 C350.702285,314.11 351.15,314.557715 351.15,315.11 L351.15,321.63 C351.15,322.182285 350.702285,322.63 350.15,322.63 Z" id="Path" fill="#787878"></path>
                <path d="M353.41,319.37 L346.89,319.37 C346.337715,319.37 345.89,318.922285 345.89,318.37 C345.89,317.817715 346.337715,317.37 346.89,317.37 L353.41,317.37 C353.962285,317.37 354.41,317.817715 354.41,318.37 C354.41,318.922285 353.962285,319.37 353.41,319.37 Z" id="Path" fill="#787878"></path>
                <path d="M16.53,304.34 C15.9777153,304.34 15.53,303.892285 15.53,303.34 L15.53,296.81 C15.53,296.257715 15.9777153,295.81 16.53,295.81 C17.0822847,295.81 17.53,296.257715 17.53,296.81 L17.53,303.34 C17.53,303.892285 17.0822847,304.34 16.53,304.34 Z" id="Path" fill="#787878"></path>
                <path d="M19.79,301.08 L13.27,301.08 C12.7177153,301.08 12.27,300.632285 12.27,300.08 C12.27,299.527715 12.7177153,299.08 13.27,299.08 L19.79,299.08 C20.3422847,299.08 20.79,299.527715 20.79,300.08 C20.79,300.632285 20.3422847,301.08 19.79,301.08 Z" id="Path" fill="#787878"></path>
                <path d="M53.16,209.85 C51.6747147,209.85 50.3358713,208.954742 49.7684159,207.582129 C49.2009606,206.209516 49.5167874,204.630202 50.5684745,203.58138 C51.6201616,202.532559 53.2003314,202.221042 54.5713911,202.792241 C55.9424508,203.363439 56.8340471,204.70472 56.8300137,206.19 C56.8244878,208.212979 55.1829862,209.85 53.16,209.85 L53.16,209.85 Z M53.16,204.52 C52.2376845,204.52 51.49,205.267684 51.49,206.19 C51.49,207.112316 52.2376845,207.86 53.16,207.86 C54.0823155,207.86 54.83,207.112316 54.83,206.19 C54.8353461,205.743633 54.6617631,205.313706 54.347996,204.996181 C54.034229,204.678657 53.6063986,204.5 53.16,204.5 L53.16,204.52 Z" id="Shape" fill="#787878"></path>
                <path d="M248.49,25.4200173 C246.889688,25.4144816 245.596332,24.113674 245.6,22.5133563 C245.603683,20.9130386 246.903001,19.618186 248.503322,19.6200172 C250.103643,19.6218523 251.4,20.9196781 251.4,22.52 C251.4,23.2908636 251.093097,24.0300094 250.547077,24.5741533 C250.001057,25.1182972 249.260859,25.4226582 248.49,25.4200173 L248.49,25.4200173 Z M248.49,21.2 C247.760984,21.2 247.17,21.7909841 247.17,22.52 C247.17,23.2490159 247.760984,23.84 248.49,23.84 C249.219016,23.84 249.81,23.2490159 249.81,22.52 C249.804556,21.7932511 249.216749,21.205444 248.49,21.2 Z" id="Shape" fill="#787878"></path>
                <path d="M355.16,230.5 C353.133115,230.5 351.49,228.856885 351.49,226.83 C351.49,224.803115 353.133115,223.16 355.16,223.16 C357.186885,223.16 358.83,224.803115 358.83,226.83 C358.83,227.803345 358.44334,228.736823 357.755082,229.425082 C357.066823,230.11334 356.133345,230.5 355.16,230.5 L355.16,230.5 Z M355.16,225.17 C354.483641,225.17 353.874075,225.577985 353.616188,226.20325 C353.3583,226.828515 353.503021,227.547589 353.982713,228.024409 C354.462405,228.501229 355.182336,228.641628 355.806041,228.37999 C356.429746,228.118352 356.83405,227.506347 356.83003,226.83 C356.819018,225.917117 356.072932,225.184434 355.16,225.19 L355.16,225.17 Z" id="Shape" fill="#787878"></path>
                <path d="M58.53,365.65 C55.1500173,365.65 52.41,362.909983 52.41,359.53 C52.41,356.150017 55.1500173,353.41 58.53,353.41 C61.9099827,353.41 64.65,356.150017 64.65,359.53 C64.65,362.909983 61.9099827,365.65 58.53,365.65 L58.53,365.65 Z M58.53,356.76 C57.4046865,356.76 56.3903707,357.43842 55.9606721,358.478463 C55.5309734,359.518506 55.770657,360.715014 56.5678062,361.509296 C57.3649554,362.303577 58.5623195,362.538948 59.6008073,362.105504 C60.6392951,361.67206 61.3140479,360.655306 61.3100181,359.53 C61.3044912,357.998555 60.0614548,356.76 58.53,356.76 L58.53,356.76 Z" id="Shape" fill="#787878"></path>
                <path d="M410.38,106.18 C407.00554,106.18 404.27,103.44446 404.27,100.07 C404.27,96.6955402 407.00554,93.96 410.38,93.96 C413.75446,93.96 416.49,96.6955402 416.49,100.07 C416.484494,103.442177 413.752177,106.174494 410.38,106.18 L410.38,106.18 Z M410.38,97.29 C408.844648,97.29 407.6,98.5346484 407.6,100.07 C407.6,101.605352 408.844648,102.85 410.38,102.85 C411.915352,102.85 413.16,101.605352 413.16,100.07 C413.154515,98.5369262 411.913074,97.2954851 410.38,97.29 L410.38,97.29 Z" id="Shape" fill="#787878"></path>
                <path d="M255.49,207.19 C253.463115,207.19 251.82,205.546885 251.82,203.52 C251.82,201.493115 253.463115,199.85 255.49,199.85 C257.516885,199.85 259.16,201.493115 259.16,203.52 C259.16,205.546885 257.516885,207.19 255.49,207.19 Z M255.49,201.84997 C254.567684,201.84997 253.82,202.597684 253.82,203.52 C253.82,204.442316 254.567684,205.19 255.49,205.19 C256.412316,205.19 257.16003,204.442316 257.16003,203.52 C257.162681,203.076272 256.987596,202.649941 256.673828,202.336172 C256.360059,202.022404 255.933728,201.847319 255.49,201.84997 Z" id="Shape" fill="#787878"></path>
                <path d="M208.73,49.6800137 C207.243811,49.6840441 205.901899,48.7913629 205.33129,47.4190736 C204.76068,46.0467843 205.074034,44.4658297 206.124932,43.4149317 C207.17583,42.3640337 208.756784,42.0506802 210.129074,42.6212897 C211.501363,43.1918991 212.394044,44.5338113 212.390014,46.02 C212.390014,46.9906924 212.004394,47.9216277 211.318011,48.6080108 C210.631628,49.294394 209.700692,49.6800137 208.73,49.6800137 L208.73,49.6800137 Z M208.73,44.3499699 C208.053653,44.3459499 207.441648,44.7502545 207.18001,45.3739592 C206.918372,45.9976638 207.058771,46.7175946 207.535591,47.1972869 C208.012411,47.6769793 208.731485,47.8216998 209.35675,47.5638124 C209.982015,47.3059251 210.39,46.6963593 210.39,46.02 C210.39,45.1015756 209.648408,44.3554995 208.73,44.3499699 L208.73,44.3499699 Z" id="Shape" fill="#787878"></path>
            </g>
            <g id="freepik--character-3--inject-153" transform="translate(200.547839, 0.000000)">
                <circle id="Oval" fill="#56BC4C" fill-rule="nonzero" transform="translate(133.176491, 133.176491) rotate(-45.000000) translate(-133.176491, -133.176491) " cx="133.176491" cy="133.176491" r="94.17"></circle>
                <path d="M85.1493528,214.195113 C111.115174,229.598777 142.891319,231.621821 170.600941,219.63543 C198.310564,207.649039 218.595011,183.106071 225.149353,153.635113 L206.549353,153.635113 L206.549353,161.745113 L218.439353,161.745113 L218.439353,170.935113 L192.489353,170.935113 L192.489353,140.115113 L188.159353,140.115113 L188.159353,179.045113 L178.969353,179.045113 L178.969353,161.205113 L173.019353,161.205113 L173.019353,215.275113 L116.789353,215.275113 L116.789353,197.975113 L137.329353,197.975113 L137.329353,149.855113 L85.9693528,149.855113 L85.9693528,197.975113 L106.509353,197.975113 L106.509353,214.195113 L85.1493528,214.195113 Z" id="Path" fill="#263238" fill-rule="nonzero"></path>
                <g id="Group" transform="translate(31.679353, 31.688092)" stroke="#263238" stroke-linecap="round" stroke-linejoin="round">
                    <polygon id="Path" fill="#263238" fill-rule="nonzero" points="108.01 88.7770212 138.15 108.137021 95.91 158.077021 69.29 134.097021"></polygon>
                    <polygon id="Path" fill="#FFFFFF" fill-rule="nonzero" points="119.23 95.1570212 121.21 92.7370212 128.25 97.1370212 125.83 99.9970212"></polygon>
                    <polygon id="Path" fill="#FFFFFF" fill-rule="nonzero" points="107.79 92.9570212 132.87 109.457021 95.03 154.997021 73.03 133.877021"></polygon>
                    <line x1="106.61" y1="101.977021" x2="121.61" y2="113.527021" id="Path"></line>
                    <line x1="103.32" y1="106.017021" x2="118.33" y2="117.557021" id="Path"></line>
                    <line x1="100.04" y1="110.057021" x2="115.05" y2="121.597021" id="Path"></line>
                    <line x1="96.76" y1="114.087021" x2="111.76" y2="125.637021" id="Path"></line>
                    <line x1="93.48" y1="118.127021" x2="108.48" y2="129.667021" id="Path"></line>
                    <line x1="90.2" y1="122.167021" x2="105.2" y2="133.707021" id="Path"></line>
                    <line x1="86.92" y1="126.207021" x2="101.92" y2="137.747021" id="Path"></line>
                    <line x1="83.64" y1="130.237021" x2="98.64" y2="141.787021" id="Path"></line>
                    <polygon id="Path" fill="#FFFFFF" fill-rule="nonzero" points="116.37 93.6170212 113.29 97.3570212 126.05 105.057021 128.91 101.537021"></polygon>
                    <path d="M75.45,115.177021 C75.45,115.177021 83.81,109.457021 86.23,109.457021 C88.65,109.457021 101.23,110.557021 100.09,112.537021 C98.95,114.517021 98.33,115.837021 95.25,116.057021 C92.17,116.277021 87.55,116.057021 87.55,116.057021 C87.55,116.057021 84.47,118.917021 81.83,119.577021 C79.19,120.237021 79.41,121.777021 79.41,121.777021 L75.45,115.177021 Z" id="Path" fill="#949494" fill-rule="nonzero"></path>
                    <path d="M42.89,48.7470212 C42.89,48.7470212 26.73,61.6570212 20.46,71.5070212 C14.19,81.3570212 -2.84217094e-14,111.437021 -2.84217094e-14,123.317021 L-2.84217094e-14,201.517021 L77.54,201.517021 C77.54,201.517021 72.59,131.517021 71.6,115.067021 C70.61,98.6170212 67.97,80.7470212 67.97,80.7470212 L42.89,48.7470212 Z" id="Path" fill="#FFFFFF" fill-rule="nonzero"></path>
                    <path d="M56.4,40.8170212 L49.4,49.8170212 L68.09,72.1270212 L78.74,59.2670212 C78.74,59.2670212 85.17,42.7870212 77.94,34.7470212 C70.71,26.7070212 61.22,35.7970212 56.4,40.8170212 Z" id="Path" fill-opacity="0.873934659" fill="#F3ACA9" fill-rule="nonzero"></path>
                    <path d="M78.71,59.3070212 C78.71,59.3070212 85.14,42.8270212 77.91,34.7870212 C76.9220463,33.6431945 75.6831562,32.7431168 74.29,32.1570212 C73.87,33.0470212 73.29,33.9570212 72.81,33.6370212 C72.7774755,32.9638494 72.687143,32.2947195 72.54,31.6370212 C69.34,31.1570212 66.04,32.6370212 63.09,34.7670212 C62.79244,36.7764504 63.0951048,38.8290049 63.96,40.6670212 C64.85,42.1470212 68.68,43.3270212 68.68,43.3270212 C68.68,43.3270212 64.54,53.5170212 66.9,56.7570212 C68.12,58.4370212 70.54,62.4470212 73.18,65.9370212 L78.71,59.3070212 Z" id="Path" fill="#263238" fill-rule="nonzero"></path>
                    <path d="M110.65,32.0270212 C110.65,32.0270212 116.26,33.2070212 119.8,29.0270212 C123.34,24.8470212 113.9,10.4370212 107.11,5.71702123 C100.32,0.997021231 74.97,-3.34297877 67.89,3.70702123 C60.81,10.7570212 52.55,41.4770212 54.89,42.7070212 C57.23,43.9370212 69.94,42.9970212 72.89,41.5270212 C75.84,40.0570212 77.32,32.3770212 83.51,32.6670212 C89.7,32.9570212 93.25,34.7370212 97.09,34.4470212 C100.93,34.1570212 110.65,32.0270212 110.65,32.0270212 Z" id="Path" fill="#263238" fill-rule="nonzero"></path>
                    <path d="M74.97,32.9170212 C74.97,32.9170212 74.68,24.6570212 69.07,28.1970212 C63.46,31.7370212 65.24,38.5270212 66.12,39.9970212 C67,41.4670212 70.84,42.6570212 70.84,42.6570212 C70.84,42.6570212 66.7,52.8470212 69.06,56.0870212 C71.42,59.3270212 78.31,71.3670212 82.53,71.3670212 C83.85,71.3670212 96.22,57.7070212 96.22,57.7070212 L100.06,58.8870212 L106.24,43.6570212 L110.68,32.0570212 L92.09,24.0570212 C92.09,24.0570212 90.61,30.8370212 85.89,29.9570212 C82.9637244,29.4279207 79.9662756,29.4279207 77.04,29.9570212 C77.04,29.9570212 75.86,33.5070212 74.97,32.9170212 Z" id="Path" fill="#F3ACA9" fill-rule="nonzero"></path>
                    <path d="M108.25,44.8370212 L86.55,35.1870212 L84.14,42.0270212 C84.14,42.0270212 91.77,51.2670212 95.59,52.2770212 C99.41,53.2870212 101.82,49.6570212 103.59,50.4670212 L102.59,54.2870212 C102.59,54.2870212 106.45,55.6570212 108.25,44.8370212 Z" id="Path" fill="#FFFFFF" fill-rule="nonzero"></path>
                    <line x1="74" y1="29.2570212" x2="108.25" y2="44.8370212" id="Path" stroke-width="2"></line>
                    <path d="M46.75,44.0370212 C46.75,44.0370212 57.81,57.0970212 62.23,62.5270212 C66.65,67.9570212 71.88,74.7870212 71.88,74.7870212 L70.47,88.2470212 C70.47,88.2470212 54.39,66.1370212 50.37,61.9170212 C46.35,57.6970212 39.52,49.8570212 39.52,49.8570212 L46.75,44.0370212 Z" id="Path" fill="#FFFFFF" fill-rule="nonzero"></path>
                    <path d="M195.42,158.297021 L203.99,158.297021 L203.99,193.897021 C203.99,195.691947 202.534925,197.147021 200.74,197.147021 L198.65,197.147021 C196.855075,197.147021 195.4,195.691947 195.4,193.897021 L195.4,158.297021 L195.42,158.297021 Z" id="Path" fill="#FFFFFF" fill-rule="nonzero"></path>
                    <path d="M199.71,195.507021 L199.71,195.507021 C197.915075,195.507021 196.46,194.051947 196.46,192.257021 L196.46,162.577021 L202.96,162.577021 L202.96,192.257021 C202.96,194.051947 201.504925,195.507021 199.71,195.507021 Z" id="Path" fill="#56BC4C" fill-rule="nonzero"></path>
                    <path d="M181.77,158.297021 L190.34,158.297021 L190.34,193.897021 C190.34,195.691947 188.884925,197.147021 187.09,197.147021 L185.01,197.147021 C183.215075,197.147021 181.76,195.691947 181.76,193.897021 L181.76,158.297021 L181.77,158.297021 Z" id="Path" fill="#FFFFFF" fill-rule="nonzero"></path>
                    <rect id="Rectangle" fill="#FFFFFF" fill-rule="nonzero" x="180.9" y="156.547021" width="10.32" height="2.27"></rect>
                    <path d="M186.06,195.507037 L186.06,195.507037 C185.198963,195.507037 184.373337,195.164297 183.765431,194.554514 C183.157525,193.944732 182.817342,193.118054 182.819985,192.257021 L182.819985,162.577021 L189.310016,162.577021 L189.310016,192.257021 C189.312667,193.11979 188.971114,193.94799 188.361041,194.558063 C187.750969,195.168135 186.922768,195.509688 186.06,195.507037 L186.06,195.507037 Z" id="Path" fill="#56BC4C" fill-rule="nonzero"></path>
                    <path d="M168.05,158.297021 L176.65,158.297021 L176.65,193.897021 C176.65,195.691947 175.194925,197.147021 173.4,197.147021 L171.32,197.147021 C169.525075,197.147021 168.07,195.691947 168.07,193.897021 L168.07,158.297021 L168.05,158.297021 Z" id="Path" fill="#FFFFFF" fill-rule="nonzero"></path>
                    <rect id="Rectangle" fill="#FFFFFF" fill-rule="nonzero" x="167.18" y="156.547021" width="10.32" height="2.27"></rect>
                    <path d="M172.34,195.507037 L172.34,195.507037 C170.545075,195.507037 169.09,194.051947 169.09,192.257021 L169.09,162.577021 L175.590016,162.577021 L175.590016,192.257021 C175.592667,193.11979 175.251114,193.94799 174.641041,194.558063 C174.030969,195.168135 173.202768,195.509688 172.34,195.507037 L172.34,195.507037 Z" id="Path" fill="#56BC4C" fill-rule="nonzero"></path>
                    <path d="M154.48,158.297021 L163.05,158.297021 L163.05,193.897021 C163.05,195.691947 161.594925,197.147021 159.8,197.147021 L157.72,197.147021 C155.925075,197.147021 154.47,195.691947 154.47,193.897021 L154.47,158.297021 L154.48,158.297021 Z" id="Path" fill="#FFFFFF" fill-rule="nonzero"></path>
                    <rect id="Rectangle" fill="#FFFFFF" fill-rule="nonzero" x="153.6" y="156.547021" width="10.32" height="2.27"></rect>
                    <path d="M158.77,195.507037 L158.77,195.507037 C156.975075,195.507037 155.52,194.051947 155.52,192.257021 L155.52,162.577021 L162.020016,162.577021 L162.020016,192.257021 C162.022667,193.11979 161.681114,193.94799 161.071041,194.558063 C160.460969,195.168135 159.632768,195.509688 158.77,195.507037 Z" id="Path" fill="#56BC4C" fill-rule="nonzero"></path>
                    <rect id="Rectangle" fill="#FFFFFF" fill-rule="nonzero" x="194.55" y="156.547021" width="10.32" height="2.27"></rect>
                    <rect id="Rectangle" fill="#FFFFFF" fill-rule="nonzero" x="134.35" y="191.897021" width="76.65" height="9.27"></rect>
                    <rect id="Rectangle" fill="#FFFFFF" fill-rule="nonzero" x="134.35" y="168.447021" width="76.65" height="2.1"></rect>
                    <path d="M130.89,161.657021 L154.12,159.657021 C154.12,159.657021 164.47,163.977021 165.98,165.817021 C167.49,167.657021 165.32,175.167021 165.32,175.167021 C165.32,175.167021 161.84,182.787021 160.32,182.927021 C158.8,183.067021 151.32,183.127021 150.32,182.337021 C149.32,181.547021 149.85,179.727021 150.73,179.647021 C151.61,179.567021 142.19,180.457021 138.52,179.037021 C134.85,177.617021 128.26,173.387021 128.26,173.387021 L130.89,161.657021 Z" id="Path" fill="#949494" fill-rule="nonzero"></path>
                    <path d="M154.49,172.917021 L160.95,178.047021 C160.95,178.047021 162.57,181.207021 161.21,183.107021" id="Path"></path>
                    <path d="M154.21,167.657021 L163.1,172.787021 C163.1,172.787021 165.7,172.317021 165.32,175.227021" id="Path"></path>
                    <path d="M154.47,163.417021 C154.47,163.417021 163.89,167.167021 164.63,167.977021 C165.37,168.787021 166.14,172.257021 166.14,172.257021" id="Path"></path>
                    <path d="M38.98,109.547021 C38.98,109.547021 66.92,162.907021 69.11,165.017021 C71.3,167.127021 130.25,177.097021 130.25,177.097021 L132.76,161.657021 L88.76,141.657021 C88.76,141.657021 70.31,87.0570212 65.21,82.2370212 C60.11,77.4170212 52.98,72.1370212 47.91,74.6070212" id="Path" fill="#FFFFFF" fill-rule="nonzero"></path>
                </g>
            </g>
            <g id="freepik--character-1--inject-153" transform="translate(0.000000, 0.168966)">
                <circle id="Oval" fill="#56BC4C" fill-rule="nonzero" transform="translate(133.020928, 133.020928) rotate(-45.000000) translate(-133.020928, -133.020928) " cx="133.020928" cy="133.020928" r="94.06"></circle>
                <path d="M184.877191,168.606148 L184.877191,205.916148 L101.587191,205.916148 L101.587191,185.916148 L90.7771913,185.916148 L90.7771913,210.796148 L84.8771913,210.796148 L84.8771913,203.796148 L71.0371913,203.796148 C93.9001305,223.826125 125.03241,231.574618 154.616939,224.598258 C184.201468,217.621898 208.591941,196.780525 220.097191,168.646148 L184.877191,168.606148 Z" id="Path" fill="#263238" fill-rule="nonzero"></path>
                <path d="M78.3371913,151.306148 L40.7471913,151.306148 C44.2088954,168.784031 52.5789987,184.913737 64.8771913,197.806148 L78.3771913,197.806148 L78.3371913,151.306148 Z" id="Path" fill="#263238" fill-rule="nonzero"></path>
                <g id="Group" transform="translate(39.191025, 33.195077)" stroke="#263238" stroke-linecap="round" stroke-linejoin="round">
                    <path d="M80.0661665,37.1010707 C80.0661665,37.1010707 70.1261665,28.3210707 70.9661665,22.4610707 C71.6761665,17.4610707 85.9661665,0.291070729 100.896166,0.0110707288 C115.826166,-0.268929271 130.546166,4.72107073 132.486166,19.6910707 C134.426166,34.6610707 134.686166,40.9810707 138.026166,47.9810707 C141.366166,54.9810707 158.526166,88.9810707 163.236166,98.6910707 C167.946166,108.401071 165.176166,116.971071 147.446166,123.071071 C129.716166,129.171071 90.6461665,133.071071 89.8161665,102.291071 C88.9861665,71.5110707 94.8161665,53.5210707 92.0261665,46.0410707 C89.2361665,38.5610707 80.0661665,37.1010707 80.0661665,37.1010707 Z" id="Path" fill="#263238" fill-rule="nonzero"></path>
                    <path d="M108.096166,77.8710707 C108.096166,77.8710707 85.4861665,77.5810707 84.0061665,78.4710707 C82.5261665,79.3610707 43.2861665,102.231071 43.2861665,102.231071 L31.3461665,67.4610707 L10.8161665,80.2510707 C10.8161665,80.2510707 27.4861665,139.491071 28.9761665,139.791071 C30.4661665,140.091071 73.8861665,129.981071 73.8861665,129.981071 L67.8861665,199.891071 L157.726166,199.891071 C157.726166,199.891071 160.726166,99.6410707 160.996166,94.2910707 C161.266166,88.9410707 152.686166,79.0610707 147.686166,78.7710707 C142.686166,78.4810707 108.096166,77.8710707 108.096166,77.8710707 Z" id="Path" fill="#FFFFFF" fill-rule="nonzero"></path>
                    <polyline id="Path" points="46.6961665 115.611071 43.2761665 102.231071 52.1561665 116.391071"></polyline>
                    <rect id="Rectangle" fill="#56BC4C" fill-rule="nonzero" x="116.566166" y="127.391071" width="19.07" height="29.82"></rect>
                    <rect id="Rectangle" fill="#263238" fill-rule="nonzero" x="123.506166" y="119.421071" width="5.2" height="12.14"></rect>
                    <path d="M105.886166,76.4910707 C105.886166,76.4910707 104.216166,79.2610707 101.726166,82.5910707 C99.2361665,85.9210707 91.1961665,91.7310707 91.1961665,91.7310707 L98.3961665,95.3310707 L89.8161665,102.261071 C90.7105348,109.391057 92.1922377,116.434999 94.2461665,123.321071 C96.4018598,130.437383 98.1579343,137.668671 99.5061665,144.981071 L134.686166,104.201071 L128.036166,97.8310707 L137.736166,95.6110707 C137.736166,95.6110707 136.626166,82.8610707 134.416166,77.6110707 C132.206166,72.3610707 128.596166,72.0710707 123.056166,72.0710707 C117.516166,72.0710707 107.826166,73.7210707 105.886166,76.4910707 Z" id="Path" fill="#FFFFFF" fill-rule="nonzero"></path>
                    <path d="M104.216166,73.1710707 C105.310465,77.2278021 105.686135,81.4447859 105.326166,85.6310707 C104.776166,92.8410707 98.9561665,128.031071 102.836166,129.141071 C106.716166,130.251071 127.216166,80.3710707 127.216166,77.3210707 C127.216166,74.2710707 123.336166,53.4910707 123.336166,53.4910707 C123.336166,53.4910707 117.246166,72.3310707 104.216166,73.1710707 Z" id="Path" fill="#FFFFFF" fill-rule="nonzero"></path>
                    <path d="M123.336166,53.4910707 C123.336166,53.4910707 117.246166,72.3310707 104.216166,73.1710707 C104.839359,75.4170489 105.218222,77.7237509 105.346166,80.0510707 C105.894643,80.1438261 106.449902,80.1906552 107.006166,80.1910707 C115.596166,80.1910707 124.526166,66.0710707 124.526166,62.1910707 C124.526166,61.5310707 124.526166,60.8410707 124.526166,60.1910707 C123.876166,56.3810707 123.336166,53.4910707 123.336166,53.4910707 Z" id="Path" fill="#263238" fill-rule="nonzero"></path>
                    <path d="M102.836166,129.141071 C104.836166,129.701071 110.986166,117.271071 116.636166,104.431071 C112.18008,105.695484 107.453303,105.643389 103.026166,104.281071 C101.686166,115.981071 100.546166,128.481071 102.836166,129.141071 Z" id="Path" fill="#56BC4C" fill-rule="nonzero"></path>
                    <path d="M79.6061665,34.5610707 C79.6061665,38.9910707 83.4361665,54.3210707 87.6061665,60.1410707 C91.7761665,65.9610707 98.0661665,77.3110707 106.656166,77.3110707 C115.246166,77.3110707 124.176166,63.1910707 124.176166,59.3110707 C124.176166,55.4310707 124.456166,50.7210707 124.456166,50.7210707 C124.456166,50.7210707 128.336166,46.0110707 127.226166,42.1310707 C126.116166,38.2510707 125.016166,37.9810707 125.016166,37.9810707 C125.016166,37.9810707 108.666166,39.0810707 99.7961665,34.1010707 C93.9695376,30.7467561 88.4097784,26.9488688 83.1661665,22.7410707 C83.1661665,22.7410707 79.6061665,30.1310707 79.6061665,34.5610707 Z" id="Path" fill="#A06464" fill-rule="nonzero"></path>
                    <path d="M91.0461665,58.1210707 C91.959517,59.1957127 93.3170407,59.7896293 94.7261665,59.7310707" id="Path"></path>
                    <path d="M116.206166,37.4410707 C116.206166,37.4410707 89.4461665,39.7810707 75.4661665,47.1510707 C75.4661665,47.1510707 79.2561665,58.5710707 81.3461665,59.0010707 C83.4361665,59.4310707 89.1861665,58.1010707 89.9761665,56.7810707 C90.7661665,55.4610707 89.9761665,50.8610707 91.6261665,50.3210707 C93.2761665,49.7810707 94.7661665,55.4410707 97.4361665,55.5910707 C100.106166,55.7410707 110.436166,52.6910707 112.436166,51.7710707 C114.436166,50.8510707 117.806166,45.2010707 117.806166,45.2010707 L116.206166,37.4410707 Z" id="Path" fill="#FFFFFF" fill-rule="nonzero"></path>
                    <path d="M75.4661665,47.1510707 C88.2783356,41.275039 102.120943,37.9757823 116.206166,37.4410707" id="Path" stroke-width="3"></path>
                    <path d="M148.856166,79.6610707 C148.856166,79.6610707 157.776166,79.3610707 163.726166,82.3410707 C169.676166,85.3210707 175.326166,93.0510707 173.846166,98.7010707 C172.366166,104.351071 147.066166,184.371071 147.066166,184.371071 L93.9061665,149.241071 L103.826166,126.301071 L132.556166,144.901071 L145.876166,101.381071" id="Path" fill="#FFFFFF" fill-rule="nonzero"></path>
                    <line x1="132.556166" y1="144.901071" x2="136.386166" y2="154.611071" id="Path"></line>
                    <path d="M66.0547312,88.8383296 L74.6747312,88.8383296 L74.6747312,122.98833 C74.6747312,124.899235 73.1256364,126.44833 71.2147312,126.44833 L69.5547312,126.44833 C67.6438259,126.44833 66.0947312,124.899235 66.0947312,122.98833 L66.0947312,88.8383296 L66.0547312,88.8383296 Z" id="Path" fill="#56BC4C" fill-rule="nonzero" transform="translate(70.364731, 107.643330) rotate(-2.180000) translate(-70.364731, -107.643330) "></path>
                    <rect id="Rectangle" fill="#FFFFFF" fill-rule="nonzero" transform="translate(69.596703, 88.361387) rotate(-2.180000) translate(-69.596703, -88.361387) " x="64.3017028" y="87.3513868" width="10.59" height="2.02"></rect>
                    <path d="M98.9561665,122.741071 C98.9561665,122.741071 94.2861665,118.221071 92.3561665,114.031071 C90.4261665,109.841071 88.9661665,104.201071 86.8661665,103.391071 C84.7661665,102.581071 74.6161665,97.1110707 74.6161665,97.1110707 L74.6161665,102.431071 L68.9761665,97.4310707 C68.9761665,97.4310707 64.6261665,88.7310707 64.1461665,88.8910707 C63.6661665,89.0510707 62.6961665,87.8910707 61.7261665,90.1810707 C60.7561665,92.4710707 62.2061665,96.3010707 62.2061665,96.3010707 C62.2061665,96.3010707 58.9861665,98.4010707 59.9561665,101.301071 C60.9261665,104.201071 60.2761665,107.591071 61.2461665,112.101071 C62.2161665,116.611071 63.0161665,120.161071 65.9161665,122.581071 C70.0860492,125.684711 74.5081174,128.434287 79.1361665,130.801071 C81.8761665,132.091071 86.3861665,134.991071 86.3861665,134.991071 L99.7661665,149.491071 L111.366166,134.661071 L98.9561665,122.741071 Z" id="Path" fill="#949494" fill-rule="nonzero"></path>
                    <line x1="74.6161665" y1="102.431071" x2="80.5861665" y2="106.301071" id="Path" fill="#FFFFFF" fill-rule="nonzero"></line>
                    <path d="M62.2061665,96.3010707 C62.2061665,96.3010707 64.3061665,103.231071 65.5961665,104.851071 C66.8861665,106.471071 74.9461665,111.781071 74.9461665,111.781071" id="Path"></path>
                    <path d="M60.2761665,103.881071 C60.2761665,103.881071 63.3361665,112.881071 65.1061665,114.191071 C66.8761665,115.501071 73.6561665,118.711071 73.6561665,118.711071" id="Path"></path>
                    <path d="M62.0461665,116.131071 C64.2797539,119.25466 67.2791615,121.751297 70.7561665,123.381071" id="Path"></path>
                    <polygon id="Path" fill="#FFFFFF" fill-rule="nonzero" points="66.0061665 87.4510707 68.4861665 87.2410707 33.9661665 35.5710707 27.5661665 40.3210707"></polygon>
                    <polygon id="Path" fill="#263238" fill-rule="nonzero" points="34.8261665 35.1410707 17.7861665 13.6910707 9.92616646 19.4810707 26.3261665 41.7710707"></polygon>
                    <path d="M17.5261665,76.0710707 L29.5261665,68.5710707 C29.0061665,61.1010707 27.9961665,47.0010707 27.6461665,44.5710707 C27.1761665,41.2710707 21.0461665,35.1410707 21.0461665,35.1410707 C21.0461665,35.1410707 28.7461665,27.7510707 30.1661665,27.7510707 C31.5861665,27.7510707 34.7261665,26.4910707 34.0961665,25.2310707 C33.4661665,23.9710707 29.0961665,23.8210707 29.0961665,23.8210707 L27.5261665,22.4010707 L19.9761665,15.0110707 C19.9761665,15.0110707 17.6161665,12.0110707 16.3561665,12.0110707 C15.0961665,12.0110707 0.35616646,24.1210707 0.00616645952,25.6910707 C-0.34383354,27.2610707 14.3161665,44.0910707 15.7261665,46.7710707 C16.7961665,48.8010707 17.3261665,67.0510707 17.5261665,76.0710707 Z" id="Path" fill="#949494" fill-rule="nonzero"></path>
                    <path d="M29.1061665,23.8410707 C27.5573535,23.8883864 26.0226492,24.1509016 24.5461665,24.6210707 C23.2861665,25.2510707 16.0561665,30.9110707 16.0561665,30.9110707" id="Path"></path>
                    <path d="M23.7561665,18.9810707 C23.7561665,18.9810707 20.4561665,20.4010707 19.8261665,21.3410707 C19.1961665,22.2810707 11.9661665,27.1610707 11.9661665,27.1610707" id="Path"></path>
                    <path d="M20.1461665,15.6610707 C20.1461665,15.6610707 8.97616646,21.3210707 7.40616646,23.2110707" id="Path"></path>
                </g>
            </g>
            <g id="freepik--character-2--inject-153" transform="translate(93.267481, 178.715885)">
                <circle id="Oval" fill="#56BC4C" fill-rule="nonzero" transform="translate(132.936075, 132.936075) rotate(-45.000000) translate(-132.936075, -132.936075) " cx="132.936075" cy="132.936075" r="94"></circle>
                <path d="M223.31971,158.829229 L207.05971,158.829229 L207.05971,75.1392287 C205.29971,72.892562 203.443044,70.7258953 201.48971,68.6392287 L201.48971,82.1092287 L179.21971,82.1092287 L179.21971,129.109229 L103.72971,129.109229 L103.72971,72.8292287 L99.3997103,72.8292287 L99.3997103,116.139229 L82.0797103,116.139229 L82.0797103,84.6292287 L74.0297103,84.6292287 L74.0297103,181.769229 L52.6097103,181.769229 C72.0008686,213.690045 108.450636,231.102537 145.467015,226.128278 C182.483394,221.154019 213.043323,194.736769 223.31971,158.829229 L223.31971,158.829229 Z M190.31971,87.0592287 L201.45971,87.0592287 L201.45971,129.129229 L190.34971,129.129229 L190.31971,87.0592287 Z" id="Shape" fill="#263238" fill-rule="nonzero"></path>
                <g id="Group" transform="translate(17.609710, 10.889229)">
                    <path d="M28.8909164,26.0172527 L38.4809164,26.0172527 L38.4809164,64.5872527 C38.4809164,65.5101233 38.1123011,66.394765 37.4569223,67.0445102 C36.8015435,67.6942554 35.9137523,68.0552545 34.9909164,68.047383 L32.3109164,68.047383 C30.4000111,68.047383 28.8509164,66.498158 28.8509164,64.5872527 L28.8509164,26.0172527 L28.8909164,26.0172527 Z" id="Path" stroke="#263238" fill="#FFFFFF" fill-rule="nonzero" stroke-linecap="round" stroke-linejoin="round" transform="translate(33.665916, 47.032318) rotate(-2.180000) translate(-33.665916, -47.032318) "></path>
                    <path d="M34.37,66.74 L34.37,66.74 C32.4623451,66.8132347 30.85584,65.3275531 30.78,63.42 L29.56,31.42 L36.47,31.15 L37.69,63.15 C37.7632347,65.0576549 36.2775531,66.66416 34.37,66.74 Z" id="Path" stroke="#263238" fill="#56BC4C" fill-rule="nonzero" stroke-linecap="round" stroke-linejoin="round"></path>
                    <rect id="Rectangle" stroke="#263238" fill="#FFFFFF" fill-rule="nonzero" stroke-linecap="round" stroke-linejoin="round" transform="translate(32.856562, 25.483284) rotate(-2.180000) translate(-32.856562, -25.483284) " x="26.9315623" y="24.3532843" width="11.85" height="2.26"></rect>
                    <path d="M3.62,83.55 C3.62,83.55 1.08,62.12 1.08,57.89 C1.08,53.66 13.77,37.3 16.08,35.6 C18.39,33.9 34.13,35.04 34.13,35.04 C34.13,35.04 42.31,43.78 42.31,45.19 C42.31,46.6 40.31,47.19 40.31,47.19 C40.31,47.19 41.15,47.75 39.74,49.45 C38.696003,50.5096774 37.2773802,51.1166325 35.79,51.14 C35.79,51.14 35.23,54.52 32.97,54.52 L30.7,54.52 L25.62,57.34 C25.62,57.34 21.95,61.57 21.11,63.83 C20.27,66.09 19.11,66.93 19.11,68.34 C19.11,69.75 19.96,77.34 19.96,77.34 L3.62,83.55 Z" id="Path" stroke="#263238" fill="#949494" fill-rule="nonzero" stroke-linecap="round" stroke-linejoin="round"></path>
                    <path d="M40.29,47.17 C40.29,47.17 32.95,37.3 30.42,37.3 C27.89,37.3 20.26,37.58 20.26,37.58" id="Path" stroke="#263238" stroke-linecap="round" stroke-linejoin="round"></path>
                    <path d="M35.77,51.12 C35.77,51.12 29.29,43.78 26.77,43.22 C24.25,42.66 16.9,42.66 16.9,42.66" id="Path" stroke="#263238" stroke-linecap="round" stroke-linejoin="round"></path>
                    <path d="M30.7,54.5 C30.7,54.5 22,46.89 20,46.89 C18,46.89 10.69,48.3 10.69,48.3" id="Path" stroke="#263238" fill="#FFFFFF" fill-rule="nonzero" stroke-linecap="round" stroke-linejoin="round"></path>
                    <path d="M9.83,55.35 L17.16,52.81 C17.16,52.81 25.62,56.48 27.88,56.48 C30.14,56.48 31.88,56.19 28.72,53.09 C25.56,49.99 23.65,47.17 19.98,46.89 C17.2799638,46.84095 14.5963566,47.3199229 12.08,48.3" id="Path" stroke="#263238" fill="#949494" fill-rule="nonzero" stroke-linecap="round" stroke-linejoin="round"></path>
                    <path d="M9,68.61 C12.1912443,69.6994998 15.694937,68.2474805 17.18,65.22 C20.28,59.86 20.28,56.76 20.28,56.76" id="Path" stroke="#263238" stroke-linecap="round" stroke-linejoin="round"></path>
                    <path d="M108.26,75.94 C108.26,75.94 71.03,81.86 69.62,82.43 C68.21,83 38.88,120.22 38.88,120.22 L25.88,72.55 L0,82.43 C0,82.43 14.11,128.68 16.65,139.96 C19.19,151.24 25.65,162.25 27.36,163.09 C29.07,163.93 63.75,139.96 63.75,139.96 L64.03,220.91 L175.11,220.91 C175.11,220.91 170,97.09 168.34,93.74 C166.68,90.39 130.55,74.84 130.55,74.84 L108.26,75.94 Z" id="Path" stroke="#263238" fill="#FFFFFF" fill-rule="nonzero" stroke-linecap="round" stroke-linejoin="round"></path>
                    <path d="M38.88,120.22 C38.88,120.22 43.65,134.46 41.31,143.04" id="Path" stroke="#263238" stroke-linecap="round" stroke-linejoin="round"></path>
                    <path d="M40.92,126.66 C40.92,126.66 43.65,130.56 44.43,138.36" id="Path" stroke="#263238" stroke-linecap="round" stroke-linejoin="round"></path>
                    <line x1="93.17" y1="155.51" x2="95.12" y2="218.3" id="Path" stroke="#263238" stroke-linecap="round" stroke-linejoin="round"></line>
                    <line x1="63.53" y1="131.73" x2="60.02" y2="110.67" id="Path" stroke="#263238" stroke-linecap="round" stroke-linejoin="round"></line>
                    <line x1="63.7" y1="139.96" x2="63.16" y2="108.95" id="Path" stroke="#263238" fill="#FFFFFF" fill-rule="nonzero" stroke-linecap="round" stroke-linejoin="round"></line>
                    <path d="M106.67,74.62 C106.67,74.62 100.09,79.17 96.55,84.49 C93.01,89.81 89,95.36 89,95.36 L93.8,99.92 L84.44,104.98 C84.44,104.98 88.44,129.51 90.52,137.86 C92.6,146.21 93.52,152.03 93.52,152.03 L136.78,108.27 L130.71,100.68 L140.57,97.39 C140.57,97.39 137.57,82.72 136.78,77.66 C135.99,72.6 131.47,71.84 129.7,71.84 C127.93,71.84 109.7,70.83 106.67,74.62 Z" id="Path" stroke="#263238" fill="#FFFFFF" fill-rule="nonzero" stroke-linecap="round" stroke-linejoin="round"></path>
                    <path d="M101.35,19.22 C100.109928,16.707734 99.5023176,13.9305756 99.58,11.13 C99.58,6.07 109.95,-5.68434189e-14 119.31,-5.68434189e-14 C128.67,-5.68434189e-14 141.57,2 148.66,9.86 C155.75,17.72 153.46,31.86 151.19,36.68 C149.316138,41.0448841 147.709832,45.5198335 146.38,50.08 C146.13,50.84 141.32,54.13 138.54,50.34 C135.76,46.55 138.29,38.7 135.25,32.63 C132.21,26.56 124.12,21.75 117.25,19.98 C110.38,18.21 101.35,19.22 101.35,19.22 Z" id="Path" stroke="#263238" fill="#263238" fill-rule="nonzero" stroke-linecap="round" stroke-linejoin="round"></path>
                    <path d="M105.91,70.83 C105.91,70.83 104.14,84.23 102.37,90.31 C100.6,96.39 96.8,121.42 96.29,129.26 C95.78,137.1 95.29,141.91 95.29,141.91 C95.29,141.91 117,108.52 122.1,97.64 C127.2,86.76 133.23,75.64 133.23,75.64 L136.52,57.18 C136.52,57.18 119.06,71.59 105.91,70.83 Z" id="Path" stroke="#263238" stroke-linecap="round" stroke-linejoin="round" fill-rule="nonzero"></path>
                    <path d="M105.91,70.83 C105.91,70.83 105.54,73.64 104.96,77.26 C111.455074,80.3450844 119.034049,80.136932 125.35,76.7 C128.819743,74.6323395 131.897012,71.9680813 134.44,68.83 L136.52,57.17 C136.52,57.17 119.06,71.59 105.91,70.83 Z" id="Path" stroke="#263238" fill="#263238" fill-rule="nonzero" stroke-linecap="round" stroke-linejoin="round"></path>
                    <path d="M122.26,97.3 C109.26,101.02 103.54,97.71 101.26,95.22 C99.35,104.84 96.73,122.83 96.26,129.22 C95.76,137.06 95.26,141.87 95.26,141.87 C95.26,141.87 117,108.52 122.1,97.64 L122.26,97.3 Z" id="Path" stroke="#263238" fill="#56BC4C" fill-rule="nonzero" stroke-linecap="round" stroke-linejoin="round"></path>
                    <path d="M99.58,17.45 C99.58,17.45 96,36.68 95.79,44.74 C95.58,52.8 99.84,71.3 104.14,73.58 C110.654297,76.7163512 118.279801,76.5265509 124.63,73.07 C132.22,68.8 137,60.74 137,60.74 C139.332369,60.1740098 141.590909,59.3383838 143.73,58.25 C146.64,56.73 148,53.89 149.04,50.93 C149.58,49.42 151.79,43.54 148.64,43.54 C146.678288,43.3622638 144.79502,44.3528395 143.83,46.07 C143.33,46.83 142.06,48.6 141.05,48.34 C140.04,48.08 141.3,42.27 141.05,37.47 C140.8,32.67 137.51,31.14 137.25,28.11 C136.99,25.08 141.81,21.78 141.81,18.75 C141.81,15.72 135.48,13.94 130.42,15.2 C125.36,16.46 117.78,17.73 113.22,14.7 C108.66,11.67 105.13,9.64 102.85,11.92 C101.378446,13.5092973 100.263547,15.3947387 99.58,17.45 L99.58,17.45 Z" id="Path" stroke="#263238" fill="#B67F63" fill-rule="nonzero" stroke-linecap="round" stroke-linejoin="round"></path>
                    <line x1="102.87" y1="49.58" x2="106.37" y2="52.69" id="Path" stroke="#263238" fill="#FFFFFF" fill-rule="nonzero" stroke-linecap="round" stroke-linejoin="round"></line>
                    <path d="M141.07,39.21 C141.07,39.21 111.22,28.08 92.5,28.83 C92.5,28.83 90.73,43 92.75,44.52 C94.77,46.04 101.61,47.52 103.12,46.52 C104.63,45.52 106.12,40.2 108.18,40.45 C110.24,40.7 108.94,47.53 111.73,49.05 C114.52,50.57 127.16,52.59 129.73,52.59 C132.3,52.59 138.83,48.29 138.83,48.29 L141.07,39.21 Z" id="Path" stroke="#263238" fill="#FFFFFF" fill-rule="nonzero" stroke-linecap="round" stroke-linejoin="round"></path>
                    <path d="M92.5,28.83 C92.5,28.83 117.79,30.21 141.07,39.21 L147.14,43" id="Path" stroke="#263238" stroke-width="3" stroke-linecap="round" stroke-linejoin="round"></path>
                    <path d="M156.78,111.74 C156.78,111.74 148.46,127.34 149.5,131.5 C150.54,135.66 165.11,194.27 165.11,194.27 L167.53,222.01 L196.32,222.01 L193.18,177.82 C193.18,177.82 170.66,95.08 169.27,93.74 C167.88,92.4 161.64,95.12 161.64,95.12" id="Path" stroke="#263238" fill="#FFFFFF" fill-rule="nonzero" stroke-linecap="round" stroke-linejoin="round"></path>
                    <rect id="Rectangle" stroke="#263238" fill="#56BC4C" fill-rule="nonzero" stroke-linecap="round" stroke-linejoin="round" x="122.28" y="143.98" width="19.07" height="29.82"></rect>
                    <rect id="Rectangle" stroke="#263238" fill="#263238" fill-rule="nonzero" stroke-linecap="round" stroke-linejoin="round" x="129.22" y="136" width="5.2" height="12.14"></rect>
                    <path d="M105.365725,78.0283737 L101.682088,95.22 C103.060363,96.8530709 105.337195,97.8971106 108.512584,98.3521193 C111.687974,98.807128 116.151631,98.3714797 121.903556,97.0451744 L132.777475,75.4810371 L133.153038,73.1741624 L131.681977,72.55 C126.887357,76.3041637 122.892655,78.5202379 119.697871,79.1982227 C116.503087,79.8762075 111.725705,79.4862578 105.365725,78.0283737 Z" id="Path-2" fill="#B57F63"></path>
                </g>
            </g>
        </g>
    </g>
</svg>