<svg width="31" height="31" viewBox="0 0 31 31" fill="none" xmlns="http://www.w3.org/2000/svg">
<path fill-rule="evenodd" clip-rule="evenodd" d="M15.9222 29.1425C8.24217 29.1425 2.01624 22.917 2.01624 15.2375C2.01624 7.55794 8.24217 1.33246 15.9222 1.33246C23.6023 1.33246 29.8282 7.55794 29.8282 15.2375C29.8282 22.917 23.6023 29.1425 15.9222 29.1425Z" fill="#8CE614" stroke="#117000" stroke-width="2.24609"/>
<path d="M3.44775 8.23004C6.28247 8.69849 8.83861 9.77397 11.3714 10.5785C13.0404 11.3015 14.817 12.5116 15.1178 14.4752C15.5194 17.0445 14.4747 19.5347 13.5863 21.8834C12.8385 23.7722 12.002 25.6231 11.2379 27.505" stroke="#117000" stroke-width="2.24858"/>
<path d="M16.5962 23.9836C16.4769 22.2802 15.6605 20.4671 16.2236 18.4702C16.8236 15.992 19.6707 13.6758 22.1496 13.1244C23.7953 12.6431 25.1462 12.6031 27.2678 12.2122C27.4942 12.1994 28.9038 11.9585 29.1302 11.973" stroke="#117000" stroke-width="2.24858" stroke-linecap="round"/>
<path d="M11.8595 7.36969C13.3701 9.27005 15.1691 11.0777 17.4596 11.9504C19.1143 12.3442 20.8388 11.773 22.2226 10.8475C22.826 10.4844 23.4158 10.0975 24.0348 9.76174" stroke="#117000" stroke-width="2.24858" stroke-linecap="round"/>
</svg>
